<svg width="260" height="260" viewBox="0 0 260 260" fill="none" xmlns="http://www.w3.org/2000/svg">
<rect width="260" height="260" rx="25" fill="#FFFDD0"/>
<mask id="path-2-outside-1_87_81" maskUnits="userSpaceOnUse" x="21" y="60" width="214" height="150" fill="black">
<rect fill="white" x="21" y="60" width="214" height="150"/>
<path d="M95.128 208.16C106.051 208.16 115.437 206.752 123.288 203.936C131.224 201.205 137.667 197.621 142.616 193.184C147.651 188.747 151.363 184.011 153.752 178.976C156.227 173.941 157.507 169.163 157.592 164.64C157.677 159.691 156.525 155.211 154.136 151.2C151.747 147.104 148.333 143.563 143.896 140.576C139.544 137.589 134.381 135.285 128.408 133.664C122.52 132.043 116.12 131.232 109.208 131.232C101.101 131.232 94.3173 132.213 88.856 134.176C83.48 136.139 79.4693 138.571 76.824 141.472C74.1787 144.288 72.8133 146.976 72.728 149.536C72.728 151.669 73.368 153.717 74.648 155.68C76.0133 157.643 78.232 159.264 81.304 160.544C84.4613 161.824 88.6427 162.464 93.848 162.464C99.9067 162.379 105.325 161.525 110.104 159.904C114.883 158.283 118.979 156.149 122.392 153.504C125.805 150.773 128.451 147.829 130.328 144.672C132.205 141.429 133.229 138.229 133.4 135.072C133.571 131.232 132.504 127.648 130.2 124.32C127.981 120.907 124.397 118.176 119.448 116.128C114.584 113.995 108.269 112.928 100.504 112.928C92.4827 112.928 85.1867 114.208 78.616 116.768C72.0453 119.243 66.3707 122.528 61.592 126.624C56.8987 130.72 53.272 135.285 50.712 140.32C48.152 145.269 46.8293 150.261 46.744 155.296C46.6587 161.781 48.3653 167.2 51.864 171.552C55.448 175.989 60.312 179.275 66.456 181.408C72.6 183.627 79.4693 184.736 87.064 184.736C96.3653 184.736 105.069 182.987 113.176 179.488C121.368 175.989 129.048 171.253 136.216 165.28C143.469 159.307 150.339 152.565 156.824 145.056C163.309 137.461 169.581 129.568 175.64 121.376C181.699 113.099 187.629 104.992 193.432 97.056C199.235 89.0347 205.037 81.696 210.84 75.04C213.827 71.712 216.771 68.9813 219.672 66.848C222.573 64.6293 225.347 62.7947 227.992 61.344H234.52C232.387 61.856 229.997 62.7947 227.352 64.16C224.792 65.44 222.147 67.104 219.416 69.152C216.685 71.1147 214.083 73.3333 211.608 75.808C206.744 80.7573 202.179 86.432 197.912 92.832C193.645 99.1467 189.507 105.803 185.496 112.8C181.571 119.797 177.517 126.837 173.336 133.92C169.24 140.917 164.931 147.573 160.408 153.888C155.885 160.117 150.979 165.621 145.688 170.4C138.435 176.885 130.2 181.835 120.984 185.248C111.853 188.747 102.296 190.496 92.312 190.496C81.9013 190.496 73.24 188.917 66.328 185.76C59.416 182.688 54.2533 178.507 50.84 173.216C47.512 167.925 45.8907 161.952 45.976 155.296C46.0613 150.091 47.384 144.928 49.944 139.808C52.5893 134.688 56.3013 130.08 61.08 125.984C65.944 121.803 71.6613 118.475 78.232 116C84.888 113.44 92.312 112.16 100.504 112.16C108.611 112.16 115.139 113.269 120.088 115.488C125.123 117.621 128.749 120.437 130.968 123.936C133.272 127.435 134.339 131.147 134.168 135.072C133.997 138.4 132.973 141.728 131.096 145.056C129.219 148.299 126.531 151.285 123.032 154.016C119.619 156.747 115.48 158.965 110.616 160.672C105.752 162.293 100.205 163.147 93.976 163.232C88.5147 163.232 84.1627 162.592 80.92 161.312C77.6773 159.947 75.3733 158.24 74.008 156.192C72.6427 154.059 71.96 151.883 71.96 149.664C72.0453 146.933 73.4533 144.075 76.184 141.088C78.9147 138.101 83.0533 135.584 88.6 133.536C94.1467 131.403 101.059 130.336 109.336 130.336C116.419 130.336 122.947 131.189 128.92 132.896C134.893 134.517 140.099 136.864 144.536 139.936C148.973 143.008 152.387 146.635 154.776 150.816C157.251 154.997 158.445 159.605 158.36 164.64C158.275 169.248 156.995 174.112 154.52 179.232C152.131 184.437 148.376 189.259 143.256 193.696C138.221 198.219 131.693 201.888 123.672 204.704C115.736 207.52 106.264 208.928 95.256 208.928C85.016 208.928 75.416 207.392 66.456 204.32C57.5813 201.248 49.7733 196.981 43.032 191.52C36.376 186.059 31.2133 179.744 27.544 172.576C23.7893 165.408 21.9973 157.728 22.168 149.536C22.3387 141.344 24.4293 133.664 28.44 126.496C32.3653 119.243 37.7413 112.885 44.568 107.424C51.48 101.963 59.416 97.696 68.376 94.624C77.4213 91.552 87.064 90.016 97.304 90.016C101.912 90.016 106.605 90.4 111.384 91.168C116.248 91.936 120.856 93.1733 125.208 94.88C129.645 96.5013 133.528 98.592 136.856 101.152C140.269 103.627 142.829 106.656 144.536 110.24L143.768 110.496C142.061 106.997 139.544 104.011 136.216 101.536C132.973 99.0613 129.176 97.056 124.824 95.52C120.557 93.8987 116.035 92.704 111.256 91.936C106.563 91.168 101.912 90.784 97.304 90.784C87.2347 90.784 77.72 92.32 68.76 95.392C59.8 98.3787 51.9067 102.56 45.08 107.936C38.3387 113.312 33.0053 119.584 29.08 126.752C25.1547 133.835 23.1067 141.429 22.936 149.536C22.7653 157.643 24.5147 165.237 28.184 172.32C31.8533 179.403 36.9733 185.632 43.544 191.008C50.2 196.384 57.9227 200.565 66.712 203.552C75.5867 206.624 85.0587 208.16 95.128 208.16ZM169.24 131.744C166.339 131.744 164.163 130.421 162.712 127.776C161.347 125.131 160.664 122.101 160.664 118.688C160.749 114.08 161.901 109.472 164.12 104.864C166.424 100.256 169.453 95.8187 173.208 91.552C177.048 87.2853 181.315 83.3173 186.008 79.648C190.787 75.9787 195.693 72.7787 200.728 70.048C205.763 67.3173 210.669 65.184 215.448 63.648C220.312 62.112 224.707 61.344 228.632 61.344V62.112C224.792 62.112 220.525 62.9227 215.832 64.544C211.139 66.1653 206.317 68.4267 201.368 71.328C196.419 74.144 191.597 77.472 186.904 81.312C182.296 85.152 178.115 89.3333 174.36 93.856C170.691 98.2933 167.747 102.901 165.528 107.68C163.309 112.373 162.157 117.109 162.072 121.888C162.072 124.192 162.669 126.283 163.864 128.16C165.059 130.037 166.851 130.976 169.24 130.976C172.568 130.976 175.597 130.08 178.328 128.288C181.144 126.411 183.533 124.021 185.496 121.12C187.459 118.219 188.952 115.147 189.976 111.904C191.085 108.576 191.64 105.461 191.64 102.56C191.64 98.8907 190.744 95.2213 188.952 91.552C187.16 87.7973 184.387 84.3413 180.632 81.184C176.963 78.0267 172.269 75.5093 166.552 73.632C160.92 71.6693 154.264 70.688 146.584 70.688C138.392 70.688 130.797 71.84 123.8 74.144C116.803 76.3627 110.744 79.4347 105.624 83.36C100.589 87.2853 96.8347 91.808 94.36 96.928L93.848 96.288C96.3227 91.3387 100.035 86.9013 104.984 82.976C110.019 78.9653 116.035 75.808 123.032 73.504C130.115 71.1147 137.88 69.92 146.328 69.92C154.264 69.92 161.133 70.944 166.936 72.992C172.739 74.9547 177.517 77.5573 181.272 80.8C185.027 84.0427 187.8 87.6267 189.592 91.552C191.384 95.4773 192.28 99.36 192.28 103.2C192.28 106.187 191.725 109.344 190.616 112.672C189.507 116 187.928 119.115 185.88 122.016C183.832 124.917 181.4 127.264 178.584 129.056C175.853 130.848 172.739 131.744 169.24 131.744Z"/>
<path d="M37.4 183.2C37.4 184.967 35.9673 186.4 34.2 186.4C32.4327 186.4 31 184.967 31 183.2C31 181.433 32.4327 180 34.2 180C35.9673 180 37.4 181.433 37.4 183.2ZM50.2 183.2C50.2 184.967 48.7673 186.4 47 186.4C45.2327 186.4 43.8 184.967 43.8 183.2C43.8 181.433 45.2327 180 47 180C48.7673 180 50.2 181.433 50.2 183.2ZM63 183.2C63 184.967 61.5673 186.4 59.8 186.4C58.0327 186.4 56.6 184.967 56.6 183.2C56.6 181.433 58.0327 180 59.8 180C61.5673 180 63 181.433 63 183.2ZM75.8 183.2C75.8 184.967 74.3673 186.4 72.6 186.4C70.8327 186.4 69.4 184.967 69.4 183.2C69.4 181.433 70.8327 180 72.6 180C74.3673 180 75.8 181.433 75.8 183.2ZM88.5999 183.2C88.5999 184.967 87.1673 186.4 85.3999 186.4C83.6326 186.4 82.2 184.967 82.2 183.2C82.2 181.433 83.6326 180 85.3999 180C87.1673 180 88.5999 181.433 88.5999 183.2ZM101.4 183.2C101.4 184.967 99.9672 186.4 98.1999 186.4C96.4326 186.4 94.9999 184.967 94.9999 183.2C94.9999 181.433 96.4326 180 98.1999 180C99.9672 180 101.4 181.433 101.4 183.2ZM114.2 183.2C114.2 184.967 112.767 186.4 111 186.4C109.233 186.4 107.8 184.967 107.8 183.2C107.8 181.433 109.233 180 111 180C112.767 180 114.2 181.433 114.2 183.2ZM127 183.2C127 184.967 125.567 186.4 123.8 186.4C122.033 186.4 120.6 184.967 120.6 183.2C120.6 181.433 122.033 180 123.8 180C125.567 180 127 181.433 127 183.2ZM139.8 183.2C139.8 184.967 138.367 186.4 136.6 186.4C134.833 186.4 133.4 184.967 133.4 183.2C133.4 181.433 134.833 180 136.6 180C138.367 180 139.8 181.433 139.8 183.2ZM152.6 183.2C152.6 184.967 151.167 186.4 149.4 186.4C147.633 186.4 146.2 184.967 146.2 183.2C146.2 181.433 147.633 180 149.4 180C151.167 180 152.6 181.433 152.6 183.2ZM165.4 183.2C165.4 184.967 163.967 186.4 162.2 186.4C160.433 186.4 159 184.967 159 183.2C159 181.433 160.433 180 162.2 180C163.967 180 165.4 181.433 165.4 183.2Z"/>
</mask>
<path d="M95.128 208.16C106.051 208.16 115.437 206.752 123.288 203.936C131.224 201.205 137.667 197.621 142.616 193.184C147.651 188.747 151.363 184.011 153.752 178.976C156.227 173.941 157.507 169.163 157.592 164.64C157.677 159.691 156.525 155.211 154.136 151.2C151.747 147.104 148.333 143.563 143.896 140.576C139.544 137.589 134.381 135.285 128.408 133.664C122.52 132.043 116.12 131.232 109.208 131.232C101.101 131.232 94.3173 132.213 88.856 134.176C83.48 136.139 79.4693 138.571 76.824 141.472C74.1787 144.288 72.8133 146.976 72.728 149.536C72.728 151.669 73.368 153.717 74.648 155.68C76.0133 157.643 78.232 159.264 81.304 160.544C84.4613 161.824 88.6427 162.464 93.848 162.464C99.9067 162.379 105.325 161.525 110.104 159.904C114.883 158.283 118.979 156.149 122.392 153.504C125.805 150.773 128.451 147.829 130.328 144.672C132.205 141.429 133.229 138.229 133.4 135.072C133.571 131.232 132.504 127.648 130.2 124.32C127.981 120.907 124.397 118.176 119.448 116.128C114.584 113.995 108.269 112.928 100.504 112.928C92.4827 112.928 85.1867 114.208 78.616 116.768C72.0453 119.243 66.3707 122.528 61.592 126.624C56.8987 130.72 53.272 135.285 50.712 140.32C48.152 145.269 46.8293 150.261 46.744 155.296C46.6587 161.781 48.3653 167.2 51.864 171.552C55.448 175.989 60.312 179.275 66.456 181.408C72.6 183.627 79.4693 184.736 87.064 184.736C96.3653 184.736 105.069 182.987 113.176 179.488C121.368 175.989 129.048 171.253 136.216 165.28C143.469 159.307 150.339 152.565 156.824 145.056C163.309 137.461 169.581 129.568 175.64 121.376C181.699 113.099 187.629 104.992 193.432 97.056C199.235 89.0347 205.037 81.696 210.84 75.04C213.827 71.712 216.771 68.9813 219.672 66.848C222.573 64.6293 225.347 62.7947 227.992 61.344H234.52C232.387 61.856 229.997 62.7947 227.352 64.16C224.792 65.44 222.147 67.104 219.416 69.152C216.685 71.1147 214.083 73.3333 211.608 75.808C206.744 80.7573 202.179 86.432 197.912 92.832C193.645 99.1467 189.507 105.803 185.496 112.8C181.571 119.797 177.517 126.837 173.336 133.92C169.24 140.917 164.931 147.573 160.408 153.888C155.885 160.117 150.979 165.621 145.688 170.4C138.435 176.885 130.2 181.835 120.984 185.248C111.853 188.747 102.296 190.496 92.312 190.496C81.9013 190.496 73.24 188.917 66.328 185.76C59.416 182.688 54.2533 178.507 50.84 173.216C47.512 167.925 45.8907 161.952 45.976 155.296C46.0613 150.091 47.384 144.928 49.944 139.808C52.5893 134.688 56.3013 130.08 61.08 125.984C65.944 121.803 71.6613 118.475 78.232 116C84.888 113.44 92.312 112.16 100.504 112.16C108.611 112.16 115.139 113.269 120.088 115.488C125.123 117.621 128.749 120.437 130.968 123.936C133.272 127.435 134.339 131.147 134.168 135.072C133.997 138.4 132.973 141.728 131.096 145.056C129.219 148.299 126.531 151.285 123.032 154.016C119.619 156.747 115.48 158.965 110.616 160.672C105.752 162.293 100.205 163.147 93.976 163.232C88.5147 163.232 84.1627 162.592 80.92 161.312C77.6773 159.947 75.3733 158.24 74.008 156.192C72.6427 154.059 71.96 151.883 71.96 149.664C72.0453 146.933 73.4533 144.075 76.184 141.088C78.9147 138.101 83.0533 135.584 88.6 133.536C94.1467 131.403 101.059 130.336 109.336 130.336C116.419 130.336 122.947 131.189 128.92 132.896C134.893 134.517 140.099 136.864 144.536 139.936C148.973 143.008 152.387 146.635 154.776 150.816C157.251 154.997 158.445 159.605 158.36 164.64C158.275 169.248 156.995 174.112 154.52 179.232C152.131 184.437 148.376 189.259 143.256 193.696C138.221 198.219 131.693 201.888 123.672 204.704C115.736 207.52 106.264 208.928 95.256 208.928C85.016 208.928 75.416 207.392 66.456 204.32C57.5813 201.248 49.7733 196.981 43.032 191.52C36.376 186.059 31.2133 179.744 27.544 172.576C23.7893 165.408 21.9973 157.728 22.168 149.536C22.3387 141.344 24.4293 133.664 28.44 126.496C32.3653 119.243 37.7413 112.885 44.568 107.424C51.48 101.963 59.416 97.696 68.376 94.624C77.4213 91.552 87.064 90.016 97.304 90.016C101.912 90.016 106.605 90.4 111.384 91.168C116.248 91.936 120.856 93.1733 125.208 94.88C129.645 96.5013 133.528 98.592 136.856 101.152C140.269 103.627 142.829 106.656 144.536 110.24L143.768 110.496C142.061 106.997 139.544 104.011 136.216 101.536C132.973 99.0613 129.176 97.056 124.824 95.52C120.557 93.8987 116.035 92.704 111.256 91.936C106.563 91.168 101.912 90.784 97.304 90.784C87.2347 90.784 77.72 92.32 68.76 95.392C59.8 98.3787 51.9067 102.56 45.08 107.936C38.3387 113.312 33.0053 119.584 29.08 126.752C25.1547 133.835 23.1067 141.429 22.936 149.536C22.7653 157.643 24.5147 165.237 28.184 172.32C31.8533 179.403 36.9733 185.632 43.544 191.008C50.2 196.384 57.9227 200.565 66.712 203.552C75.5867 206.624 85.0587 208.16 95.128 208.16ZM169.24 131.744C166.339 131.744 164.163 130.421 162.712 127.776C161.347 125.131 160.664 122.101 160.664 118.688C160.749 114.08 161.901 109.472 164.12 104.864C166.424 100.256 169.453 95.8187 173.208 91.552C177.048 87.2853 181.315 83.3173 186.008 79.648C190.787 75.9787 195.693 72.7787 200.728 70.048C205.763 67.3173 210.669 65.184 215.448 63.648C220.312 62.112 224.707 61.344 228.632 61.344V62.112C224.792 62.112 220.525 62.9227 215.832 64.544C211.139 66.1653 206.317 68.4267 201.368 71.328C196.419 74.144 191.597 77.472 186.904 81.312C182.296 85.152 178.115 89.3333 174.36 93.856C170.691 98.2933 167.747 102.901 165.528 107.68C163.309 112.373 162.157 117.109 162.072 121.888C162.072 124.192 162.669 126.283 163.864 128.16C165.059 130.037 166.851 130.976 169.24 130.976C172.568 130.976 175.597 130.08 178.328 128.288C181.144 126.411 183.533 124.021 185.496 121.12C187.459 118.219 188.952 115.147 189.976 111.904C191.085 108.576 191.64 105.461 191.64 102.56C191.64 98.8907 190.744 95.2213 188.952 91.552C187.16 87.7973 184.387 84.3413 180.632 81.184C176.963 78.0267 172.269 75.5093 166.552 73.632C160.92 71.6693 154.264 70.688 146.584 70.688C138.392 70.688 130.797 71.84 123.8 74.144C116.803 76.3627 110.744 79.4347 105.624 83.36C100.589 87.2853 96.8347 91.808 94.36 96.928L93.848 96.288C96.3227 91.3387 100.035 86.9013 104.984 82.976C110.019 78.9653 116.035 75.808 123.032 73.504C130.115 71.1147 137.88 69.92 146.328 69.92C154.264 69.92 161.133 70.944 166.936 72.992C172.739 74.9547 177.517 77.5573 181.272 80.8C185.027 84.0427 187.8 87.6267 189.592 91.552C191.384 95.4773 192.28 99.36 192.28 103.2C192.28 106.187 191.725 109.344 190.616 112.672C189.507 116 187.928 119.115 185.88 122.016C183.832 124.917 181.4 127.264 178.584 129.056C175.853 130.848 172.739 131.744 169.24 131.744Z" fill="black"/>
<path d="M37.4 183.2C37.4 184.967 35.9673 186.4 34.2 186.4C32.4327 186.4 31 184.967 31 183.2C31 181.433 32.4327 180 34.2 180C35.9673 180 37.4 181.433 37.4 183.2ZM50.2 183.2C50.2 184.967 48.7673 186.4 47 186.4C45.2327 186.4 43.8 184.967 43.8 183.2C43.8 181.433 45.2327 180 47 180C48.7673 180 50.2 181.433 50.2 183.2ZM63 183.2C63 184.967 61.5673 186.4 59.8 186.4C58.0327 186.4 56.6 184.967 56.6 183.2C56.6 181.433 58.0327 180 59.8 180C61.5673 180 63 181.433 63 183.2ZM75.8 183.2C75.8 184.967 74.3673 186.4 72.6 186.4C70.8327 186.4 69.4 184.967 69.4 183.2C69.4 181.433 70.8327 180 72.6 180C74.3673 180 75.8 181.433 75.8 183.2ZM88.5999 183.2C88.5999 184.967 87.1673 186.4 85.3999 186.4C83.6326 186.4 82.2 184.967 82.2 183.2C82.2 181.433 83.6326 180 85.3999 180C87.1673 180 88.5999 181.433 88.5999 183.2ZM101.4 183.2C101.4 184.967 99.9672 186.4 98.1999 186.4C96.4326 186.4 94.9999 184.967 94.9999 183.2C94.9999 181.433 96.4326 180 98.1999 180C99.9672 180 101.4 181.433 101.4 183.2ZM114.2 183.2C114.2 184.967 112.767 186.4 111 186.4C109.233 186.4 107.8 184.967 107.8 183.2C107.8 181.433 109.233 180 111 180C112.767 180 114.2 181.433 114.2 183.2ZM127 183.2C127 184.967 125.567 186.4 123.8 186.4C122.033 186.4 120.6 184.967 120.6 183.2C120.6 181.433 122.033 180 123.8 180C125.567 180 127 181.433 127 183.2ZM139.8 183.2C139.8 184.967 138.367 186.4 136.6 186.4C134.833 186.4 133.4 184.967 133.4 183.2C133.4 181.433 134.833 180 136.6 180C138.367 180 139.8 181.433 139.8 183.2ZM152.6 183.2C152.6 184.967 151.167 186.4 149.4 186.4C147.633 186.4 146.2 184.967 146.2 183.2C146.2 181.433 147.633 180 149.4 180C151.167 180 152.6 181.433 152.6 183.2ZM165.4 183.2C165.4 184.967 163.967 186.4 162.2 186.4C160.433 186.4 159 184.967 159 183.2C159 181.433 160.433 180 162.2 180C163.967 180 165.4 181.433 165.4 183.2Z" fill="black"/>
<path d="M123.288 203.936L122.963 202.99L122.95 202.995L123.288 203.936ZM142.616 193.184L141.955 192.434L141.948 192.439L142.616 193.184ZM153.752 178.976L152.854 178.535L152.849 178.547L153.752 178.976ZM157.592 164.64L158.592 164.659L158.592 164.657L157.592 164.64ZM154.136 151.2L153.272 151.704L153.277 151.712L154.136 151.2ZM143.896 140.576L143.33 141.401L143.338 141.406L143.896 140.576ZM128.408 133.664L128.143 134.628L128.146 134.629L128.408 133.664ZM88.856 134.176L88.5178 133.235L88.5131 133.237L88.856 134.176ZM76.824 141.472L77.5528 142.157L77.5579 142.151L77.563 142.146L76.824 141.472ZM72.728 149.536L71.7286 149.503L71.728 149.519V149.536H72.728ZM74.648 155.68L73.8104 156.226L73.8186 156.239L73.8271 156.251L74.648 155.68ZM81.304 160.544L80.9194 161.467L80.9283 161.471L81.304 160.544ZM93.848 162.464V163.464L93.8621 163.464L93.848 162.464ZM122.392 153.504L123.005 154.294L123.011 154.29L123.017 154.285L122.392 153.504ZM130.328 144.672L131.188 145.183L131.193 145.173L130.328 144.672ZM133.4 135.072L134.399 135.126L134.399 135.116L133.4 135.072ZM130.2 124.32L129.362 124.865L129.37 124.877L129.378 124.889L130.2 124.32ZM119.448 116.128L119.046 117.044L119.056 117.048L119.066 117.052L119.448 116.128ZM78.616 116.768L78.9685 117.704L78.979 117.7L78.616 116.768ZM61.592 126.624L60.9412 125.865L60.9345 125.871L61.592 126.624ZM50.712 140.32L51.6002 140.779L51.6034 140.773L50.712 140.32ZM46.744 155.296L45.7441 155.279L45.7441 155.283L46.744 155.296ZM51.864 171.552L51.0846 172.179L51.0861 172.18L51.864 171.552ZM66.456 181.408L66.7957 180.467L66.784 180.463L66.456 181.408ZM113.176 179.488L112.783 178.568L112.78 178.57L113.176 179.488ZM136.216 165.28L135.58 164.508L135.576 164.512L136.216 165.28ZM156.824 145.056L157.581 145.71L157.584 145.705L156.824 145.056ZM175.64 121.376L176.444 121.971L176.447 121.967L175.64 121.376ZM193.432 97.056L194.239 97.6462L194.242 97.6421L193.432 97.056ZM210.84 75.04L210.096 74.3721L210.091 74.3774L210.086 74.3829L210.84 75.04ZM219.672 66.848L220.264 67.6536L220.272 67.6481L220.279 67.6423L219.672 66.848ZM227.992 61.344V60.344H227.736L227.511 60.4672L227.992 61.344ZM234.52 61.344L234.753 62.3164L234.52 60.344V61.344ZM227.352 64.16L227.799 65.0545L227.811 65.0486L227.352 64.16ZM219.416 69.152L220 69.964L220.008 69.9581L220.016 69.952L219.416 69.152ZM211.608 75.808L210.901 75.1009L210.895 75.1071L211.608 75.808ZM197.912 92.832L198.741 93.3919L198.744 93.3867L197.912 92.832ZM185.496 112.8L184.628 112.303L184.624 112.311L185.496 112.8ZM173.336 133.92L172.475 133.412L172.473 133.415L173.336 133.92ZM160.408 153.888L161.217 154.476L161.221 154.47L160.408 153.888ZM145.688 170.4L146.355 171.145L146.358 171.142L145.688 170.4ZM120.984 185.248L120.637 184.31L120.626 184.314L120.984 185.248ZM66.328 185.76L66.7435 184.85L66.7341 184.846L66.328 185.76ZM50.84 173.216L49.9935 173.748L49.9997 173.758L50.84 173.216ZM45.976 155.296L44.9761 155.28L44.9761 155.283L45.976 155.296ZM49.944 139.808L49.0555 139.349L49.0496 139.361L49.944 139.808ZM61.08 125.984L61.7308 126.743L61.7319 126.742L61.08 125.984ZM78.232 116L78.5845 116.936L78.591 116.933L78.232 116ZM120.088 115.488L119.679 116.401L119.688 116.405L119.698 116.409L120.088 115.488ZM130.968 123.936L130.123 124.472L130.128 124.479L130.133 124.486L130.968 123.936ZM134.168 135.072L135.167 135.123L135.167 135.115L134.168 135.072ZM131.096 145.056L131.961 145.557L131.967 145.547L131.096 145.056ZM123.032 154.016L122.417 153.228L122.407 153.235L123.032 154.016ZM110.616 160.672L110.932 161.621L110.94 161.618L110.947 161.616L110.616 160.672ZM93.976 163.232L93.976 164.232L93.9897 164.232L93.976 163.232ZM80.92 161.312L80.5319 162.234L80.5423 162.238L80.5528 162.242L80.92 161.312ZM74.008 156.192L73.1657 156.731L73.1708 156.739L73.176 156.747L74.008 156.192ZM71.96 149.664L70.9605 149.633L70.96 149.648V149.664H71.96ZM76.184 141.088L76.922 141.763L76.922 141.763L76.184 141.088ZM88.6 133.536L88.9464 134.474L88.959 134.469L88.6 133.536ZM128.92 132.896L128.645 133.858L128.658 133.861L128.92 132.896ZM144.536 139.936L143.967 140.758L143.967 140.758L144.536 139.936ZM154.776 150.816L153.908 151.312L153.912 151.319L153.915 151.325L154.776 150.816ZM158.36 164.64L159.36 164.659L159.36 164.657L158.36 164.64ZM154.52 179.232L153.62 178.797L153.615 178.806L153.611 178.815L154.52 179.232ZM143.256 193.696L142.601 192.94L142.594 192.946L142.588 192.952L143.256 193.696ZM123.672 204.704L123.341 203.76L123.338 203.762L123.672 204.704ZM66.456 204.32L66.1289 205.265L66.1317 205.266L66.456 204.32ZM43.032 191.52L42.3977 192.293L42.4025 192.297L43.032 191.52ZM27.544 172.576L28.4342 172.12L28.4298 172.112L27.544 172.576ZM22.168 149.536L21.1682 149.515L21.1682 149.515L22.168 149.536ZM28.44 126.496L29.3128 126.984L29.3195 126.972L28.44 126.496ZM44.568 107.424L43.948 106.639L43.9433 106.643L44.568 107.424ZM68.376 94.624L68.0544 93.6771L68.0517 93.678L68.376 94.624ZM111.384 91.168L111.225 92.1553L111.228 92.1558L111.384 91.168ZM125.208 94.88L124.843 95.811L124.854 95.8152L124.865 95.8193L125.208 94.88ZM136.856 101.152L136.246 101.945L136.258 101.953L136.269 101.962L136.856 101.152ZM144.536 110.24L144.852 111.189L145.925 110.831L145.439 109.81L144.536 110.24ZM143.768 110.496L142.869 110.934L143.253 111.722L144.084 111.445L143.768 110.496ZM136.216 101.536L135.609 102.331L135.619 102.338L136.216 101.536ZM124.824 95.52L124.469 96.4548L124.48 96.459L124.491 96.463L124.824 95.52ZM111.256 91.936L111.095 92.9229L111.097 92.9233L111.256 91.936ZM68.76 95.392L69.0762 96.3407L69.0843 96.3379L68.76 95.392ZM45.08 107.936L44.4613 107.15L44.4565 107.154L45.08 107.936ZM29.08 126.752L29.9547 127.237L29.9571 127.232L29.08 126.752ZM22.936 149.536L23.9358 149.557L23.9358 149.557L22.936 149.536ZM28.184 172.32L27.2961 172.78L27.2961 172.78L28.184 172.32ZM43.544 191.008L42.9108 191.782L42.9157 191.786L43.544 191.008ZM66.712 203.552L67.0391 202.607L67.0337 202.605L66.712 203.552ZM162.712 127.776L161.823 128.235L161.829 128.246L161.835 128.257L162.712 127.776ZM160.664 118.688L159.664 118.669L159.664 118.679V118.688H160.664ZM164.12 104.864L163.226 104.417L163.222 104.423L163.219 104.43L164.12 104.864ZM173.208 91.552L172.465 90.883L172.457 90.8914L173.208 91.552ZM186.008 79.648L185.399 78.8548L185.392 78.8602L186.008 79.648ZM215.448 63.648L215.147 62.6944L215.142 62.696L215.448 63.648ZM228.632 61.344H229.632V60.344H228.632V61.344ZM228.632 62.112V63.112H229.632V62.112H228.632ZM215.832 64.544L216.159 65.4892L216.159 65.4892L215.832 64.544ZM201.368 71.328L201.863 72.1972L201.874 72.1907L201.368 71.328ZM186.904 81.312L186.271 80.538L186.264 80.5438L186.904 81.312ZM174.36 93.856L173.591 93.2172L173.589 93.2187L174.36 93.856ZM165.528 107.68L166.432 108.107L166.435 108.101L165.528 107.68ZM162.072 121.888L161.072 121.87L161.072 121.879V121.888H162.072ZM163.864 128.16L164.708 127.623L164.708 127.623L163.864 128.16ZM178.328 128.288L178.877 129.124L178.883 129.12L178.328 128.288ZM185.496 121.12L186.324 121.68L186.324 121.68L185.496 121.12ZM189.976 111.904L189.027 111.588L189.025 111.595L189.022 111.603L189.976 111.904ZM188.952 91.552L188.049 91.9827L188.053 91.9908L188.952 91.552ZM180.632 81.184L179.98 81.9421L179.988 81.9494L180.632 81.184ZM166.552 73.632L166.223 74.5763L166.231 74.5793L166.24 74.5821L166.552 73.632ZM123.8 74.144L124.102 75.0973L124.113 75.0938L123.8 74.144ZM105.624 83.36L105.016 82.5664L105.009 82.5714L105.624 83.36ZM94.36 96.928L93.5791 97.5527L94.5701 98.7913L95.2604 97.3632L94.36 96.928ZM93.848 96.288L92.9536 95.8408L92.6674 96.4131L93.0671 96.9127L93.848 96.288ZM104.984 82.976L105.605 83.7595L105.607 83.7582L104.984 82.976ZM123.032 73.504L123.345 74.4539L123.352 74.4515L123.032 73.504ZM166.936 72.992L166.603 73.9351L166.616 73.9393L166.936 72.992ZM185.88 122.016L185.063 121.439L185.063 121.439L185.88 122.016ZM178.584 129.056L178.047 128.212L178.035 128.22L178.584 129.056ZM95.128 208.16V209.16C106.132 209.16 115.639 207.742 123.626 204.877L123.288 203.936L122.95 202.995C115.236 205.762 105.969 207.16 95.128 207.16V208.16ZM123.288 203.936L123.613 204.882C131.644 202.118 138.212 198.475 143.284 193.929L142.616 193.184L141.948 192.439C137.121 196.767 130.804 200.292 122.963 202.99L123.288 203.936ZM142.616 193.184L143.277 193.934C148.393 189.425 152.197 184.584 154.655 179.405L153.752 178.976L152.849 178.547C150.528 183.437 146.908 188.068 141.955 192.434L142.616 193.184ZM153.752 178.976L154.649 179.417C157.174 174.282 158.503 169.359 158.592 164.659L157.592 164.64L156.592 164.621C156.51 168.966 155.28 173.601 152.855 178.535L153.752 178.976ZM157.592 164.64L158.592 164.657C158.68 159.534 157.485 154.868 154.995 150.688L154.136 151.2L153.277 151.712C155.565 155.553 156.674 159.848 156.592 164.623L157.592 164.64ZM154.136 151.2L155 150.696C152.525 146.454 149.001 142.806 144.454 139.746L143.896 140.576L143.338 141.406C147.666 144.319 150.968 147.754 153.272 151.704L154.136 151.2ZM143.896 140.576L144.462 139.751C140.003 136.691 134.733 134.345 128.67 132.699L128.408 133.664L128.146 134.629C134.029 136.226 139.085 138.487 143.33 141.401L143.896 140.576ZM128.408 133.664L128.673 132.7C122.688 131.052 116.198 130.232 109.208 130.232V131.232V132.232C116.042 132.232 122.352 133.033 128.143 134.628L128.408 133.664ZM109.208 131.232V130.232C101.028 130.232 94.1213 131.221 88.5178 133.235L88.856 134.176L89.1942 135.117C94.5134 133.206 101.174 132.232 109.208 132.232V131.232ZM88.856 134.176L88.5131 133.237C83.0499 135.231 78.8773 137.736 76.085 140.798L76.824 141.472L77.563 142.146C80.0613 139.406 83.9101 137.046 89.1989 135.115L88.856 134.176ZM76.824 141.472L76.0952 140.787C73.3653 143.693 71.8252 146.602 71.7286 149.503L72.728 149.536L73.7274 149.569C73.8014 147.35 74.992 144.883 77.5528 142.157L76.824 141.472ZM72.728 149.536H71.728C71.728 151.882 72.4353 154.118 73.8104 156.226L74.648 155.68L75.4856 155.134C74.3007 153.317 73.728 151.456 73.728 149.536H72.728ZM74.648 155.68L73.8271 156.251C75.3361 158.42 77.7377 160.141 80.9194 161.467L81.304 160.544L81.6886 159.621C78.7263 158.387 76.6905 156.865 75.4689 155.109L74.648 155.68ZM81.304 160.544L80.9283 161.471C84.2509 162.818 88.5749 163.464 93.848 163.464V162.464V161.464C88.7104 161.464 84.6718 160.83 81.6797 159.617L81.304 160.544ZM93.848 162.464L93.8621 163.464C100.005 163.377 105.53 162.512 110.425 160.851L110.104 159.904L109.783 158.957C105.121 160.539 99.8084 161.38 93.8339 161.464L93.848 162.464ZM110.104 159.904L110.425 160.851C115.292 159.2 119.49 157.018 123.005 154.294L122.392 153.504L121.779 152.714C118.467 155.281 114.474 157.365 109.783 158.957L110.104 159.904ZM122.392 153.504L123.017 154.285C126.506 151.493 129.238 148.461 131.188 145.183L130.328 144.672L129.468 144.161C127.663 147.197 125.104 150.054 121.767 152.723L122.392 153.504ZM130.328 144.672L131.193 145.173C133.135 141.819 134.218 138.467 134.399 135.126L133.4 135.072L132.401 135.018C132.241 137.991 131.275 141.04 129.463 144.171L130.328 144.672ZM133.4 135.072L134.399 135.116C134.58 131.046 133.444 127.248 131.022 123.751L130.2 124.32L129.378 124.889C131.564 128.048 132.561 131.418 132.401 135.028L133.4 135.072ZM130.2 124.32L131.038 123.775C128.68 120.146 124.908 117.305 119.83 115.204L119.448 116.128L119.066 117.052C123.886 119.047 127.283 121.667 129.362 124.865L130.2 124.32ZM119.448 116.128L119.85 115.212C114.815 113.004 108.349 111.928 100.504 111.928V112.928V113.928C108.19 113.928 114.353 114.985 119.046 117.044L119.448 116.128ZM100.504 112.928V111.928C92.3754 111.928 84.9542 113.225 78.253 115.836L78.616 116.768L78.979 117.7C85.4192 115.191 92.5899 113.928 100.504 113.928V112.928ZM78.616 116.768L78.2635 115.832C71.5964 118.343 65.8179 121.685 60.9412 125.865L61.592 126.624L62.2428 127.383C66.9234 123.371 72.4942 120.142 78.9685 117.704L78.616 116.768ZM61.592 126.624L60.9345 125.871C56.1546 130.042 52.4443 134.707 49.8206 139.867L50.712 140.32L51.6034 140.773C54.0997 135.864 57.6427 131.398 62.2495 127.377L61.592 126.624ZM50.712 140.32L49.8238 139.861C47.2006 144.932 45.8324 150.074 45.7441 155.279L46.744 155.296L47.7439 155.313C47.8263 150.448 49.1034 145.607 51.6002 140.779L50.712 140.32ZM46.744 155.296L45.7441 155.283C45.6562 161.961 47.4174 167.617 51.0846 172.179L51.864 171.552L52.6434 170.925C49.3133 166.783 47.6611 161.602 47.7439 155.309L46.744 155.296ZM51.864 171.552L51.0861 172.18C54.8033 176.783 59.8327 180.167 66.128 182.353L66.456 181.408L66.784 180.463C60.7913 178.383 56.0927 175.196 52.6419 170.924L51.864 171.552ZM66.456 181.408L66.1164 182.349C72.3854 184.612 79.372 185.736 87.064 185.736V184.736V183.736C79.5667 183.736 72.8146 182.641 66.7956 180.467L66.456 181.408ZM87.064 184.736V185.736C96.4942 185.736 105.334 183.962 113.572 180.406L113.176 179.488L112.78 178.57C104.805 182.012 96.2365 183.736 87.064 183.736V184.736ZM113.176 179.488L113.569 180.408C121.854 176.869 129.617 172.081 136.856 166.048L136.216 165.28L135.576 164.512C128.479 170.426 120.882 175.11 112.783 178.568L113.176 179.488ZM136.216 165.28L136.852 166.052C144.151 160.041 151.061 153.259 157.581 145.71L156.824 145.056L156.067 144.402C149.617 151.871 142.788 158.573 135.58 164.508L136.216 165.28ZM156.824 145.056L157.584 145.705C164.085 138.093 170.372 130.181 176.444 121.971L175.64 121.376L174.836 120.781C168.791 128.955 162.533 136.83 156.064 144.407L156.824 145.056ZM175.64 121.376L176.447 121.967C182.506 113.689 188.436 105.582 194.239 97.6462L193.432 97.056L192.625 96.4658C186.822 104.402 180.892 112.508 174.833 120.785L175.64 121.376ZM193.432 97.056L194.242 97.6421C200.029 89.6424 205.813 82.3278 211.594 75.6971L210.84 75.04L210.086 74.3829C204.261 81.0642 198.44 88.4269 192.622 96.4699L193.432 97.056ZM210.84 75.04L211.584 75.7079C214.536 72.4192 217.43 69.738 220.264 67.6536L219.672 66.848L219.08 66.0423C216.112 68.2246 213.118 71.0048 210.096 74.3721L210.84 75.04ZM219.672 66.848L220.279 67.6423C223.149 65.4482 225.88 63.6428 228.473 62.2208L227.992 61.344L227.511 60.4672C224.814 61.9465 221.998 63.8105 219.065 66.0536L219.672 66.848ZM227.992 61.344V62.344H234.52V61.344V60.344H227.992V61.344ZM234.52 61.344L234.287 60.3716C232.053 60.9077 229.587 61.8813 226.893 63.2714L227.352 64.16L227.811 65.0486C230.408 63.708 232.72 62.8043 234.753 62.3164L234.52 61.344ZM227.352 64.16L226.905 63.2656C224.282 64.5769 221.586 66.2746 218.816 68.352L219.416 69.152L220.016 69.952C222.708 67.9333 225.302 66.3031 227.799 65.0544L227.352 64.16ZM219.416 69.152L218.832 68.34C216.056 70.3355 213.412 72.5895 210.901 75.1009L211.608 75.808L212.315 76.5151C214.753 74.0771 217.315 71.8938 220 69.964L219.416 69.152ZM211.608 75.808L210.895 75.1071C205.982 80.1058 201.378 85.8305 197.08 92.2773L197.912 92.832L198.744 93.3867C202.98 87.0335 207.506 81.4088 212.321 76.5089L211.608 75.808ZM197.912 92.832L197.083 92.2721C192.802 98.6083 188.651 105.285 184.628 112.303L185.496 112.8L186.364 113.297C190.363 106.32 194.488 99.685 198.741 93.3918L197.912 92.832ZM185.496 112.8L184.624 112.311C180.702 119.302 176.653 126.335 172.475 133.412L173.336 133.92L174.197 134.428C178.382 127.34 182.439 120.293 186.368 113.289L185.496 112.8ZM173.336 133.92L172.473 133.415C168.392 140.387 164.099 147.017 159.595 153.306L160.408 153.888L161.221 154.47C165.762 148.13 170.088 141.448 174.199 134.425L173.336 133.92ZM160.408 153.888L159.599 153.3C155.114 159.478 150.253 164.929 145.018 169.658L145.688 170.4L146.358 171.142C151.704 166.313 156.657 160.757 161.217 154.476L160.408 153.888ZM145.688 170.4L145.021 169.655C137.863 176.055 129.736 180.94 120.637 184.31L120.984 185.248L121.331 186.186C130.664 182.729 139.007 177.715 146.355 171.145L145.688 170.4ZM120.984 185.248L120.626 184.314C111.612 187.768 102.176 189.496 92.312 189.496V190.496V191.496C102.416 191.496 112.094 189.725 121.342 186.182L120.984 185.248ZM92.312 190.496V189.496C81.9948 189.496 73.4862 187.93 66.7435 184.85L66.328 185.76L65.9125 186.67C72.9938 189.904 81.8079 191.496 92.312 191.496V190.496ZM66.328 185.76L66.7341 184.846C59.9637 181.837 54.9685 177.771 51.6803 172.674L50.84 173.216L49.9997 173.758C53.5381 179.243 58.8683 183.539 65.9219 186.674L66.328 185.76ZM50.84 173.216L51.6865 172.684C48.4679 167.567 46.8929 161.785 46.9759 155.309L45.976 155.296L44.9761 155.283C44.8884 162.119 46.5561 168.284 49.9935 173.748L50.84 173.216ZM45.976 155.296L46.9759 155.312C47.0585 150.271 48.3386 145.255 50.8384 140.255L49.944 139.808L49.0496 139.361C46.4294 144.601 45.0642 149.91 44.9761 155.28L45.976 155.296ZM49.944 139.808L50.8324 140.267C53.4134 135.272 57.0409 130.763 61.7308 126.743L61.08 125.984L60.4292 125.225C55.5618 129.397 51.7653 134.104 49.0556 139.349L49.944 139.808ZM61.08 125.984L61.7319 126.742C66.4992 122.644 72.1129 119.373 78.5845 116.936L78.232 116L77.8795 115.064C71.2098 117.576 65.3888 120.961 60.4281 125.226L61.08 125.984ZM78.232 116L78.591 116.933C85.1167 114.423 92.4167 113.16 100.504 113.16V112.16V111.16C92.2073 111.16 84.6593 112.457 77.873 115.067L78.232 116ZM100.504 112.16V113.16C108.533 113.16 114.906 114.261 119.679 116.401L120.088 115.488L120.497 114.575C115.372 112.278 108.688 111.16 100.504 111.16V112.16ZM120.088 115.488L119.698 116.409C124.605 118.488 128.044 121.192 130.123 124.472L130.968 123.936L131.813 123.4C129.455 119.683 125.641 116.755 120.478 114.567L120.088 115.488ZM130.968 123.936L130.133 124.486C132.329 127.821 133.33 131.328 133.169 135.029L134.168 135.072L135.167 135.115C135.347 130.966 134.215 127.048 131.803 123.386L130.968 123.936ZM134.168 135.072L133.169 135.021C133.008 138.173 132.037 141.352 130.225 144.565L131.096 145.056L131.967 145.547C133.909 142.104 134.987 138.627 135.167 135.123L134.168 135.072ZM131.096 145.056L130.231 144.555C128.428 147.668 125.833 150.562 122.417 153.228L123.032 154.016L123.647 154.804C127.229 152.009 130.009 148.929 131.961 145.557L131.096 145.056ZM123.032 154.016L122.407 153.235C119.096 155.884 115.061 158.053 110.285 159.728L110.616 160.672L110.947 161.616C115.899 159.878 120.141 157.609 123.657 154.797L123.032 154.016ZM110.616 160.672L110.3 159.723C105.552 161.306 100.11 162.148 93.9623 162.232L93.976 163.232L93.9897 164.232C100.301 164.145 105.952 163.281 110.932 161.621L110.616 160.672ZM93.976 163.232V162.232C88.5771 162.232 84.3658 161.597 81.2872 160.382L80.92 161.312L80.5528 162.242C83.9595 163.587 88.4522 164.232 93.976 164.232V163.232ZM80.92 161.312L81.3081 160.39C78.172 159.07 76.0592 157.466 74.8401 155.637L74.008 156.192L73.176 156.747C74.6875 159.014 77.1826 160.823 80.5319 162.234L80.92 161.312ZM74.008 156.192L74.8503 155.653C73.573 153.657 72.96 151.666 72.96 149.664H71.96H70.96C70.96 152.1 71.7124 154.46 73.1657 156.731L74.008 156.192ZM71.96 149.664L72.9595 149.695C73.0345 147.295 74.2772 144.656 76.922 141.763L76.184 141.088L75.446 140.413C72.6295 143.494 71.0562 146.571 70.9605 149.633L71.96 149.664ZM76.184 141.088L76.922 141.763C79.5069 138.936 83.4854 136.49 88.9464 134.474L88.6 133.536L88.2536 132.598C82.6212 134.678 78.3224 137.267 75.446 140.413L76.184 141.088ZM88.6 133.536L88.959 134.469C94.3557 132.394 101.137 131.336 109.336 131.336V130.336V129.336C100.981 129.336 93.9376 130.412 88.241 132.603L88.6 133.536ZM109.336 130.336V131.336C116.339 131.336 122.773 132.18 128.645 133.858L128.92 132.896L129.195 131.934C123.121 130.199 116.499 129.336 109.336 129.336V130.336ZM128.92 132.896L128.658 133.861C134.537 135.457 139.636 137.76 143.967 140.758L144.536 139.936L145.105 139.114C140.562 135.968 135.249 133.578 129.182 131.931L128.92 132.896ZM144.536 139.936L143.967 140.758C148.296 143.756 151.601 147.275 153.908 151.312L154.776 150.816L155.644 150.32C153.172 145.994 149.65 142.26 145.105 139.114L144.536 139.936ZM154.776 150.816L153.915 151.325C156.292 155.342 157.442 159.766 157.36 164.623L158.36 164.64L159.36 164.657C159.448 159.444 158.209 154.653 155.637 150.307L154.776 150.816ZM158.36 164.64L157.36 164.621C157.278 169.055 156.046 173.777 153.62 178.797L154.52 179.232L155.42 179.667C157.944 174.447 159.271 169.441 159.36 164.659L158.36 164.64ZM154.52 179.232L153.611 178.815C151.291 183.869 147.633 188.58 142.601 192.94L143.256 193.696L143.911 194.452C149.119 189.938 152.97 185.006 155.429 179.649L154.52 179.232ZM143.256 193.696L142.588 192.952C137.673 197.367 131.268 200.977 123.341 203.76L123.672 204.704L124.003 205.648C132.118 202.799 138.77 199.07 143.924 194.44L143.256 193.696ZM123.672 204.704L123.338 203.762C115.536 206.53 106.183 207.928 95.256 207.928V208.928V209.928C106.345 209.928 115.936 208.51 124.006 205.646L123.672 204.704ZM95.256 208.928V207.928C85.1174 207.928 75.6278 206.407 66.7803 203.374L66.456 204.32L66.1317 205.266C75.2042 208.377 84.9146 209.928 95.256 209.928V208.928ZM66.456 204.32L66.7831 203.375C58.0092 200.338 50.3054 196.125 43.6615 190.743L43.032 191.52L42.4025 192.297C49.2413 197.837 57.1535 202.158 66.1289 205.265L66.456 204.32ZM43.032 191.52L43.6663 190.747C37.109 185.367 32.0367 179.158 28.4341 172.12L27.544 172.576L26.6539 173.032C30.39 180.33 35.643 186.751 42.3977 192.293L43.032 191.52ZM27.544 172.576L28.4298 172.112C24.7545 165.095 23.0006 157.582 23.1678 149.557L22.168 149.536L21.1682 149.515C20.9941 157.874 22.8242 165.721 26.6582 173.04L27.544 172.576ZM22.168 149.536L23.1678 149.557C23.335 141.529 25.3819 134.01 29.3127 126.984L28.44 126.496L27.5673 126.008C23.4768 133.318 21.3423 141.159 21.1682 149.515L22.168 149.536ZM28.44 126.496L29.3195 126.972C33.1774 119.843 38.4641 113.588 45.1927 108.205L44.568 107.424L43.9433 106.643C37.0185 112.183 31.5533 118.642 27.5605 126.02L28.44 126.496ZM44.568 107.424L45.188 108.209C52.0048 102.822 59.8392 98.608 68.7003 95.5699L68.376 94.624L68.0517 93.678C58.9928 96.784 50.9552 101.103 43.948 106.639L44.568 107.424ZM68.376 94.624L68.6976 95.5709C77.6321 92.5365 87.1655 91.016 97.304 91.016V90.016V89.016C86.9625 89.016 77.2105 90.5675 68.0544 93.6771L68.376 94.624ZM97.304 90.016V91.016C101.856 91.016 106.497 91.3953 111.225 92.1553L111.384 91.168L111.543 90.1807C106.714 89.4047 101.968 89.016 97.304 89.016V90.016ZM111.384 91.168L111.228 92.1558C116.024 92.9131 120.562 94.1321 124.843 95.811L125.208 94.88L125.573 93.949C121.15 92.2145 116.472 90.9589 111.54 90.1802L111.384 91.168ZM125.208 94.88L124.865 95.8193C129.218 97.4099 133.009 99.454 136.246 101.945L136.856 101.152L137.466 100.359C134.047 97.73 130.073 95.5927 125.551 93.9407L125.208 94.88ZM136.856 101.152L136.269 101.962C139.556 104.344 142.003 107.246 143.633 110.67L144.536 110.24L145.439 109.81C143.656 106.066 140.983 102.909 137.443 100.342L136.856 101.152ZM144.536 110.24L144.22 109.291L143.452 109.547L143.768 110.496L144.084 111.445L144.852 111.189L144.536 110.24ZM143.768 110.496L144.667 110.058C142.885 106.406 140.26 103.297 136.813 100.734L136.216 101.536L135.619 102.338C138.828 104.724 141.237 107.589 142.869 110.934L143.768 110.496ZM136.216 101.536L136.823 100.741C133.487 98.1953 129.595 96.1433 125.157 94.577L124.824 95.52L124.491 96.463C128.757 97.9687 132.46 99.9273 135.609 102.331L136.216 101.536ZM124.824 95.52L125.179 94.5852C120.845 92.9383 116.256 91.7268 111.415 90.9487L111.256 91.936L111.097 92.9233C115.813 93.6812 120.269 94.859 124.469 96.4548L124.824 95.52ZM111.256 91.936L111.417 90.9491C106.672 90.1727 101.968 89.784 97.304 89.784V90.784V91.784C101.856 91.784 106.453 92.1633 111.095 92.9229L111.256 91.936ZM97.304 90.784V89.784C87.1313 89.784 77.5065 91.3361 68.4357 94.4461L68.76 95.392L69.0843 96.3379C77.9335 93.3039 87.338 91.784 97.304 91.784V90.784ZM68.76 95.392L68.4438 94.4433C59.3838 97.4633 51.3862 101.697 44.4613 107.15L45.08 107.936L45.6987 108.722C52.4271 103.423 60.2162 99.294 69.0762 96.3407L68.76 95.392ZM45.08 107.936L44.4565 107.154C37.6173 112.608 32.1954 118.981 28.2029 126.272L29.08 126.752L29.9571 127.232C33.8153 120.187 39.06 114.016 45.7035 108.718L45.08 107.936ZM29.08 126.752L28.2053 126.267C24.2011 133.492 22.1103 141.246 21.9362 149.515L22.936 149.536L23.9358 149.557C24.103 141.613 26.1082 134.177 29.9547 127.237L29.08 126.752ZM22.936 149.536L21.9362 149.515C21.7621 157.786 23.5485 165.546 27.2961 172.78L28.184 172.32L29.0719 171.86C25.4808 164.928 23.7686 157.499 23.9358 149.557L22.936 149.536ZM28.184 172.32L27.2961 172.78C31.032 179.991 36.2416 186.325 42.9108 191.782L43.544 191.008L44.1772 190.234C37.7051 184.939 32.6747 178.814 29.0719 171.86L28.184 172.32ZM43.544 191.008L42.9157 191.786C49.6706 197.242 57.4991 201.478 66.3903 204.499L66.712 203.552L67.0337 202.605C58.3463 199.653 50.7294 195.526 44.1723 190.23L43.544 191.008ZM66.712 203.552L66.3849 204.497C75.3721 207.608 84.9554 209.16 95.128 209.16V208.16V207.16C85.1619 207.16 75.8012 205.64 67.0391 202.607L66.712 203.552ZM169.24 131.744V130.744C167.946 130.744 166.862 130.451 165.951 129.897C165.039 129.343 164.245 128.493 163.589 127.295L162.712 127.776L161.835 128.257C162.629 129.705 163.649 130.839 164.913 131.607C166.178 132.376 167.632 132.744 169.24 132.744V131.744ZM162.712 127.776L163.601 127.317C162.319 124.833 161.664 121.965 161.664 118.688H160.664H159.664C159.664 122.237 160.375 125.428 161.823 128.235L162.712 127.776ZM160.664 118.688L161.664 118.707C161.746 114.258 162.858 109.79 165.021 105.298L164.12 104.864L163.219 104.43C160.945 109.154 159.752 113.902 159.664 118.669L160.664 118.688ZM164.12 104.864L165.014 105.311C167.276 100.788 170.255 96.4212 173.959 92.2126L173.208 91.552L172.457 90.8914C168.652 95.2161 165.572 99.7243 163.226 104.417L164.12 104.864ZM173.208 91.552L173.951 92.221C177.751 87.9991 181.975 84.0707 186.624 80.4358L186.008 79.648L185.392 78.8602C180.655 82.564 176.345 86.5715 172.465 90.883L173.208 91.552ZM186.008 79.648L186.617 80.4411C191.356 76.8022 196.219 73.6313 201.205 70.927L200.728 70.048L200.251 69.169C195.168 71.926 190.217 75.1551 185.399 78.8548L186.008 79.648ZM200.728 70.048L201.205 70.927C206.192 68.2219 211.042 66.1146 215.754 64.6L215.448 63.648L215.142 62.696C210.297 64.2534 205.333 66.4128 200.251 69.169L200.728 70.048ZM215.448 63.648L215.749 64.6016C220.543 63.0877 224.834 62.344 228.632 62.344V61.344V60.344C224.579 60.344 220.081 61.1363 215.147 62.6944L215.448 63.648ZM228.632 61.344H227.632V62.112H228.632H229.632V61.344H228.632ZM228.632 62.112V61.112C224.654 61.112 220.275 61.9513 215.505 63.5988L215.832 64.544L216.159 65.4892C220.776 63.8941 224.93 63.112 228.632 63.112V62.112ZM215.832 64.544L215.505 63.5988C210.741 65.2447 205.86 67.5356 200.862 70.4653L201.368 71.328L201.874 72.1907C206.775 69.3177 211.536 67.086 216.159 65.4892L215.832 64.544ZM201.368 71.328L200.873 70.4588C195.872 73.3043 191.005 76.6647 186.271 80.538L186.904 81.312L187.537 82.086C192.19 78.2792 196.965 74.9836 201.863 72.1972L201.368 71.328ZM186.904 81.312L186.264 80.5438C181.61 84.4221 177.385 88.6466 173.591 93.2172L174.36 93.856L175.129 94.4948C178.844 90.0201 182.982 85.8819 187.544 82.0802L186.904 81.312ZM174.36 93.856L173.589 93.2187C169.871 97.7159 166.879 102.396 164.621 107.259L165.528 107.68L166.435 108.101C168.614 103.407 171.511 98.8707 175.131 94.4933L174.36 93.856ZM165.528 107.68L164.624 107.253C162.35 112.063 161.16 116.938 161.072 121.87L162.072 121.888L163.072 121.906C163.154 117.281 164.269 112.684 166.432 108.107L165.528 107.68ZM162.072 121.888H161.072C161.072 124.375 161.72 126.653 163.02 128.697L163.864 128.16L164.708 127.623C163.619 125.912 163.072 124.009 163.072 121.888H162.072ZM163.864 128.16L163.02 128.697C164.414 130.887 166.539 131.976 169.24 131.976V130.976V129.976C167.162 129.976 165.703 129.187 164.708 127.623L163.864 128.16ZM169.24 130.976V131.976C172.759 131.976 175.98 131.025 178.877 129.124L178.328 128.288L177.779 127.452C175.215 129.135 172.377 129.976 169.24 129.976V130.976ZM178.328 128.288L178.883 129.12C181.81 127.168 184.292 124.685 186.324 121.68L185.496 121.12L184.668 120.56C182.775 123.357 180.478 125.653 177.773 127.456L178.328 128.288ZM185.496 121.12L186.324 121.68C188.339 118.702 189.876 115.543 190.93 112.205L189.976 111.904L189.022 111.603C188.028 114.751 186.578 117.736 184.668 120.56L185.496 121.12ZM189.976 111.904L190.925 112.22C192.061 108.811 192.64 105.589 192.64 102.56H191.64H190.64C190.64 105.334 190.11 108.341 189.027 111.588L189.976 111.904ZM191.64 102.56H192.64C192.64 98.7221 191.702 94.9036 189.851 91.1132L188.952 91.552L188.053 91.9908C189.786 95.5391 190.64 99.0592 190.64 102.56H191.64ZM188.952 91.552L189.854 91.1213C187.991 87.2169 185.12 83.6515 181.276 80.4186L180.632 81.184L179.988 81.9494C183.653 85.0312 186.329 88.3778 188.05 91.9827L188.952 91.552ZM180.632 81.184L181.284 80.426C177.494 77.1648 172.677 74.5906 166.864 72.6819L166.552 73.632L166.24 74.5821C171.862 76.428 176.431 78.8886 179.98 81.942L180.632 81.184ZM166.552 73.632L166.881 72.6877C161.118 70.6793 154.345 69.688 146.584 69.688V70.688V71.688C154.183 71.688 160.722 72.6594 166.223 74.5763L166.552 73.632ZM146.584 70.688V69.688C138.298 69.688 130.596 70.8534 123.487 73.1942L123.8 74.144L124.113 75.0938C130.999 72.8266 138.486 71.688 146.584 71.688V70.688ZM123.8 74.144L123.498 73.1908C116.405 75.4397 110.239 78.5615 105.016 82.5664L105.624 83.36L106.232 84.1536C111.249 80.3078 117.2 77.2856 124.102 75.0972L123.8 74.144ZM105.624 83.36L105.009 82.5714C99.8684 86.5794 96.0089 91.2185 93.4597 96.4928L94.36 96.928L95.2604 97.3632C97.6604 92.3975 101.31 87.9913 106.239 84.1486L105.624 83.36ZM94.36 96.928L95.1409 96.3033L94.6289 95.6633L93.848 96.288L93.0671 96.9127L93.5791 97.5527L94.36 96.928ZM93.848 96.288L94.7424 96.7352C97.1431 91.9339 100.754 87.6069 105.605 83.7595L104.984 82.976L104.363 82.1925C99.315 86.1958 95.5023 90.7434 92.9536 95.8408L93.848 96.288ZM104.984 82.976L105.607 83.7582C110.537 79.8312 116.444 76.7261 123.345 74.4538L123.032 73.504L122.719 72.5542C115.625 74.8899 109.501 78.0995 104.361 82.1938L104.984 82.976ZM123.032 73.504L123.352 74.4515C130.319 72.1011 137.975 70.92 146.328 70.92V69.92V68.92C137.785 68.92 129.91 70.1282 122.712 72.5565L123.032 73.504ZM146.328 69.92V70.92C154.182 70.92 160.933 71.9339 166.603 73.935L166.936 72.992L167.269 72.049C161.333 69.9541 154.346 68.92 146.328 68.92V69.92ZM166.936 72.992L166.616 73.9393C172.324 75.87 176.981 78.4158 180.618 81.5568L181.272 80.8L181.926 80.0432C178.053 76.6988 173.154 74.0394 167.256 72.0447L166.936 72.992ZM181.272 80.8L180.618 81.5568C184.28 84.7194 186.958 88.1911 188.682 91.9673L189.592 91.552L190.502 91.1367C188.642 87.0622 185.773 83.3659 181.926 80.0432L181.272 80.8ZM189.592 91.552L188.682 91.9673C190.422 95.7784 191.28 99.5201 191.28 103.2H192.28H193.28C193.28 99.1999 192.346 95.1762 190.502 91.1367L189.592 91.552ZM192.28 103.2H191.28C191.28 106.062 190.748 109.112 189.667 112.356L190.616 112.672L191.565 112.988C192.702 109.576 193.28 106.311 193.28 103.2H192.28ZM190.616 112.672L189.667 112.356C188.589 115.59 187.055 118.617 185.063 121.439L185.88 122.016L186.697 122.593C188.801 119.612 190.424 116.41 191.565 112.988L190.616 112.672ZM185.88 122.016L185.063 121.439C183.085 124.241 180.746 126.495 178.047 128.212L178.584 129.056L179.121 129.9C182.054 128.033 184.579 125.594 186.697 122.593L185.88 122.016ZM178.584 129.056L178.035 128.22C175.479 129.897 172.558 130.744 169.24 130.744V131.744V132.744C172.919 132.744 176.227 131.799 179.133 129.892L178.584 129.056Z" fill="black" mask="url(#path-2-outside-1_87_81)"/>
<path d="M37.4 183.2H36.4C36.4 184.415 35.415 185.4 34.2 185.4V186.4V187.4C36.5196 187.4 38.4 185.52 38.4 183.2H37.4ZM34.2 186.4V185.4C32.985 185.4 32 184.415 32 183.2H31H30C30 185.52 31.8804 187.4 34.2 187.4V186.4ZM31 183.2H32C32 181.985 32.985 181 34.2 181V180V179C31.8804 179 30 180.88 30 183.2H31ZM34.2 180V181C35.415 181 36.4 181.985 36.4 183.2H37.4H38.4C38.4 180.88 36.5196 179 34.2 179V180ZM50.2 183.2H49.2C49.2 184.415 48.215 185.4 47 185.4V186.4V187.4C49.3196 187.4 51.2 185.52 51.2 183.2H50.2ZM47 186.4V185.4C45.785 185.4 44.8 184.415 44.8 183.2H43.8H42.8C42.8 185.52 44.6804 187.4 47 187.4V186.4ZM43.8 183.2H44.8C44.8 181.985 45.785 181 47 181V180V179C44.6804 179 42.8 180.88 42.8 183.2H43.8ZM47 180V181C48.215 181 49.2 181.985 49.2 183.2H50.2H51.2C51.2 180.88 49.3196 179 47 179V180ZM63 183.2H62C62 184.415 61.015 185.4 59.8 185.4V186.4V187.4C62.1196 187.4 64 185.52 64 183.2H63ZM59.8 186.4V185.4C58.5849 185.4 57.6 184.415 57.6 183.2H56.6H55.6C55.6 185.52 57.4804 187.4 59.8 187.4V186.4ZM56.6 183.2H57.6C57.6 181.985 58.5849 181 59.8 181V180V179C57.4804 179 55.6 180.88 55.6 183.2H56.6ZM59.8 180V181C61.015 181 62 181.985 62 183.2H63H64C64 180.88 62.1196 179 59.8 179V180ZM75.8 183.2H74.8C74.8 184.415 73.815 185.4 72.6 185.4V186.4V187.4C74.9196 187.4 76.8 185.52 76.8 183.2H75.8ZM72.6 186.4V185.4C71.3849 185.4 70.4 184.415 70.4 183.2H69.4H68.4C68.4 185.52 70.2804 187.4 72.6 187.4V186.4ZM69.4 183.2H70.4C70.4 181.985 71.3849 181 72.6 181V180V179C70.2804 179 68.4 180.88 68.4 183.2H69.4ZM72.6 180V181C73.815 181 74.8 181.985 74.8 183.2H75.8H76.8C76.8 180.88 74.9196 179 72.6 179V180ZM88.5999 183.2H87.5999C87.5999 184.415 86.615 185.4 85.3999 185.4V186.4V187.4C87.7195 187.4 89.5999 185.52 89.5999 183.2H88.5999ZM85.3999 186.4V185.4C84.1849 185.4 83.2 184.415 83.2 183.2H82.2H81.2C81.2 185.52 83.0804 187.4 85.3999 187.4V186.4ZM82.2 183.2H83.2C83.2 181.985 84.1849 181 85.3999 181V180V179C83.0804 179 81.2 180.88 81.2 183.2H82.2ZM85.3999 180V181C86.615 181 87.5999 181.985 87.5999 183.2H88.5999H89.5999C89.5999 180.88 87.7195 179 85.3999 179V180ZM101.4 183.2H100.4C100.4 184.415 99.415 185.4 98.1999 185.4V186.4V187.4C100.52 187.4 102.4 185.52 102.4 183.2H101.4ZM98.1999 186.4V185.4C96.9849 185.4 95.9999 184.415 95.9999 183.2H94.9999H93.9999C93.9999 185.52 95.8803 187.4 98.1999 187.4V186.4ZM94.9999 183.2H95.9999C95.9999 181.985 96.9849 181 98.1999 181V180V179C95.8803 179 93.9999 180.88 93.9999 183.2H94.9999ZM98.1999 180V181C99.415 181 100.4 181.985 100.4 183.2H101.4H102.4C102.4 180.88 100.52 179 98.1999 179V180ZM114.2 183.2H113.2C113.2 184.415 112.215 185.4 111 185.4V186.4V187.4C113.32 187.4 115.2 185.52 115.2 183.2H114.2ZM111 186.4V185.4C109.785 185.4 108.8 184.415 108.8 183.2H107.8H106.8C106.8 185.52 108.68 187.4 111 187.4V186.4ZM107.8 183.2H108.8C108.8 181.985 109.785 181 111 181V180V179C108.68 179 106.8 180.88 106.8 183.2H107.8ZM111 180V181C112.215 181 113.2 181.985 113.2 183.2H114.2H115.2C115.2 180.88 113.32 179 111 179V180ZM127 183.2H126C126 184.415 125.015 185.4 123.8 185.4V186.4V187.4C126.12 187.4 128 185.52 128 183.2H127ZM123.8 186.4V185.4C122.585 185.4 121.6 184.415 121.6 183.2H120.6H119.6C119.6 185.52 121.48 187.4 123.8 187.4V186.4ZM120.6 183.2H121.6C121.6 181.985 122.585 181 123.8 181V180V179C121.48 179 119.6 180.88 119.6 183.2H120.6ZM123.8 180V181C125.015 181 126 181.985 126 183.2H127H128C128 180.88 126.12 179 123.8 179V180ZM139.8 183.2H138.8C138.8 184.415 137.815 185.4 136.6 185.4V186.4V187.4C138.919 187.4 140.8 185.52 140.8 183.2H139.8ZM136.6 186.4V185.4C135.385 185.4 134.4 184.415 134.4 183.2H133.4H132.4C132.4 185.52 134.28 187.4 136.6 187.4V186.4ZM133.4 183.2H134.4C134.4 181.985 135.385 181 136.6 181V180V179C134.28 179 132.4 180.88 132.4 183.2H133.4ZM136.6 180V181C137.815 181 138.8 181.985 138.8 183.2H139.8H140.8C140.8 180.88 138.919 179 136.6 179V180ZM152.6 183.2H151.6C151.6 184.415 150.615 185.4 149.4 185.4V186.4V187.4C151.719 187.4 153.6 185.52 153.6 183.2H152.6ZM149.4 186.4V185.4C148.185 185.4 147.2 184.415 147.2 183.2H146.2H145.2C145.2 185.52 147.08 187.4 149.4 187.4V186.4ZM146.2 183.2H147.2C147.2 181.985 148.185 181 149.4 181V180V179C147.08 179 145.2 180.88 145.2 183.2H146.2ZM149.4 180V181C150.615 181 151.6 181.985 151.6 183.2H152.6H153.6C153.6 180.88 151.719 179 149.4 179V180ZM165.4 183.2H164.4C164.4 184.415 163.415 185.4 162.2 185.4V186.4V187.4C164.519 187.4 166.4 185.52 166.4 183.2H165.4ZM162.2 186.4V185.4C160.985 185.4 160 184.415 160 183.2H159H158C158 185.52 159.88 187.4 162.2 187.4V186.4ZM159 183.2H160C160 181.985 160.985 181 162.2 181V180V179C159.88 179 158 180.88 158 183.2H159ZM162.2 180V181C163.415 181 164.4 181.985 164.4 183.2H165.4H166.4C166.4 180.88 164.519 179 162.2 179V180Z" fill="black" mask="url(#path-2-outside-1_87_81)"/>
</svg>
