<svg width="896" height="130" viewBox="0 0 896 130" fill="none" xmlns="http://www.w3.org/2000/svg">
<path d="M9.01353 129.485C6.62426 129.504 4.69936 128.879 3.23883 127.61C1.69296 126.342 0.912094 124.684 0.896232 122.636C0.883013 120.929 1.3831 119.39 2.3965 118.016C3.40989 116.643 4.81256 115.95 6.60451 115.936C8.14046 115.924 9.2104 116.342 9.81433 117.191C10.4183 118.04 10.8525 119.018 11.1171 120.125C11.2963 121.233 11.6026 122.212 12.0359 123.062C12.3838 123.913 13.1124 124.334 14.2217 124.325C15.843 124.312 17.329 123.362 18.6798 121.474C19.9452 119.587 20.9487 116.934 21.6902 113.515L42.967 17.9871C43.3798 16.1919 43.3705 14.9972 42.9392 14.4032C42.5079 13.8092 41.4377 13.3482 39.7284 13.0201L37.1645 12.5279C36.0532 12.2805 35.4949 11.8155 35.4897 11.1328C35.4817 10.1089 36.2457 9.59093 37.7817 9.57903L60.565 9.40256C61.7596 9.39331 62.3603 9.81534 62.3669 10.6686C62.3741 11.6073 61.5255 12.2112 59.8208 12.4804L57.2639 12.8842C55.3886 13.1548 54.1123 13.634 53.4349 14.3219C52.7569 14.9245 52.2115 16.1235 51.7987 17.9187L34.356 96.1362C32.046 106.394 28.6099 114.485 24.0477 120.409C19.5714 126.417 14.56 129.442 9.01353 129.485ZM61.9667 102.707C58.8948 102.73 56.4953 101.426 54.7682 98.7941C53.0411 96.1621 52.1577 92.2862 52.1181 87.1663C52.0804 82.3025 52.7254 77.4333 54.053 72.5589C55.3799 67.5991 57.2209 62.8914 59.5758 58.4357C61.9306 53.98 64.5882 50.034 67.5483 46.5976C70.5938 43.1606 73.7729 40.4479 77.0856 38.4595C80.4829 36.3851 83.8456 35.335 87.1735 35.3093C88.7948 35.2967 90.3333 35.6261 91.7893 36.2975C93.2445 36.8836 94.4467 37.8557 95.396 39.2137C95.9139 39.9777 96.4288 40.3577 96.9408 40.3538C97.4528 40.3498 97.9618 39.9618 98.4679 39.1899C99.3959 37.8173 100.157 36.9581 100.752 36.6121C101.346 36.1808 101.899 35.9632 102.411 35.9593C103.52 35.9507 103.952 36.5447 103.705 37.7413L92.6928 86.8521C91.4558 92.4085 92.3306 95.1751 95.3172 95.152C97.2798 95.1368 99.0188 93.8006 100.534 91.1435C102.135 88.4856 103.725 84.3772 105.303 78.8181C105.552 77.8775 106.103 77.4039 106.956 77.3973C107.553 77.3927 107.939 77.6457 108.114 78.1564C108.289 78.667 108.293 79.2643 108.128 79.9483C106.569 87.982 104.437 93.7586 101.734 97.2783C99.0297 100.713 95.7577 102.445 91.9178 102.475C88.5899 102.5 86.1897 101.111 84.7173 98.3062C83.3302 95.5008 83.1725 91.6619 84.2441 86.7895L85.8535 79.7368C86.0196 79.1382 85.8889 78.7978 85.4616 78.7158C85.1196 78.6331 84.8226 78.8488 84.5706 79.3627C79.9441 88.0175 75.8095 94.0657 72.1667 97.5074C68.6093 100.948 65.2093 102.681 61.9667 102.707ZM65.1161 96.1539C67.164 96.1381 69.4157 94.8832 71.8711 92.3895C74.3265 89.8957 76.7337 86.677 79.0925 82.7333C81.5367 78.7889 83.7653 74.5475 85.7782 70.0091C87.7911 65.4707 89.3787 61.1063 90.5409 56.9158C91.7885 52.7247 92.401 49.1785 92.3786 46.2773C92.3383 41.0721 90.4835 38.4837 86.8143 38.5121C84.5957 38.5293 82.257 39.5715 79.7983 41.6386C77.3389 43.6203 74.9704 46.3268 72.6929 49.7578C70.5008 53.1883 68.4829 57.0867 66.6393 61.4531C64.8804 65.7335 63.4645 70.2246 62.3916 74.9264C61.3179 79.5428 60.7983 84.0697 60.8327 88.5069C60.8558 91.4934 61.213 93.5387 61.9043 94.6428C62.6802 95.6608 63.7508 96.1645 65.1161 96.1539ZM121.057 128.746C114.316 128.798 109.187 127.6 105.669 125.153C102.151 122.705 100.379 119.775 100.353 116.362C100.329 113.375 101.501 110.422 103.868 107.502C106.15 104.668 110.434 101.392 116.72 97.6743C117.655 97.155 118.163 96.5964 118.243 95.9984C118.409 95.3145 118.02 94.6775 117.077 94.0874C114.675 92.57 113.211 90.7893 112.683 88.7453C112.241 86.7007 112.784 85.2457 114.313 84.3805L123.997 78.6734C124.847 78.2401 125.27 77.7248 125.265 77.1275C125.346 76.4442 124.914 75.8502 123.972 75.3455C121.657 73.998 119.893 72.0916 118.679 69.6263C117.55 67.0749 116.974 64.306 116.951 61.3194C116.915 56.7115 117.991 52.4364 120.18 48.494C122.452 44.4656 125.457 41.1996 129.192 38.6959C133.013 36.1916 137.27 34.9212 141.963 34.8849C143.925 34.8697 145.591 35.1128 146.961 35.6142C147.987 35.9476 148.753 35.6003 149.257 34.5724C150.683 31.4039 152.498 28.9151 154.703 27.106C156.992 25.2109 159.374 24.2537 161.849 24.2345C163.641 24.2207 165.01 24.6794 165.956 25.6108C166.987 26.5415 167.509 27.8175 167.521 29.4388C167.534 31.0601 167.075 32.3863 166.144 33.4176C165.213 34.4488 164.023 34.97 162.572 34.9813C161.463 34.9899 160.608 34.7831 160.007 34.3611C159.492 33.9384 159.019 33.5154 158.589 33.0921C158.159 32.6687 157.475 32.4607 156.537 32.4679C154.659 32.4825 153.174 33.5607 152.081 35.7025C151.746 36.4732 151.666 37.1991 151.842 37.8805C152.018 38.4765 152.364 39.1138 152.881 39.7925C155.122 42.6765 156.26 46.3372 156.294 50.7744C156.325 54.7849 155.459 58.6317 153.696 62.3148C152.017 65.912 149.651 69.0024 146.599 71.5861C143.632 74.0838 140.189 75.7745 136.27 76.6582C134.737 77.0115 133.332 77.449 132.056 77.9709C130.865 78.4068 129.335 79.2294 127.467 80.4385L122.371 83.5501C121.097 84.328 120.763 85.3119 121.37 86.5019C121.976 87.6066 123.648 88.6604 126.387 89.6632L137.426 93.6738C142.218 95.3434 145.519 97.4086 147.33 99.8693C149.227 102.329 150.188 105.223 150.214 108.551C150.245 112.647 148.907 116.199 146.2 119.207C143.578 122.214 140.055 124.545 135.63 126.201C131.205 127.856 126.348 128.705 121.057 128.746ZM125.544 63.5569C125.575 67.4821 126.152 70.3364 127.275 72.1198C128.483 73.8171 130.153 74.6576 132.286 74.641C135.017 74.6199 137.525 73.3631 139.809 70.8707C142.179 68.2922 144.074 65.0348 145.494 61.0983C146.914 57.0765 147.607 52.9324 147.574 48.6658C147.541 44.3993 146.964 41.5024 145.842 39.975C144.721 38.3623 143.05 37.5645 140.832 37.5817C138.186 37.6022 135.679 38.9017 133.31 41.4801C130.94 43.9732 129.044 47.188 127.624 51.1244C126.204 55.0609 125.511 59.205 125.544 63.5569ZM122.44 125.535C125.768 125.509 128.879 124.93 131.771 123.798C134.664 122.667 136.998 121.07 138.774 119.008C140.636 116.946 141.555 114.506 141.534 111.691C141.512 108.875 140.768 106.534 139.303 104.668C137.924 102.886 135.181 101.243 131.073 99.7392L128.634 98.862C127.093 98.2766 125.556 98.0752 124.021 98.2578C122.486 98.4403 121.039 98.8782 119.679 99.5714C115.091 102.167 111.995 104.58 110.391 106.812C108.787 109.043 107.995 111.481 108.016 114.126C108.04 117.283 109.213 119.962 111.534 122.163C113.856 124.449 117.491 125.573 122.44 125.535ZM175.169 101.83C172.353 101.852 169.364 101.448 166.2 100.619C163.121 99.7896 160.766 98.7412 159.135 97.4738C158.534 96.9664 158.272 96.2004 158.349 95.1758L161.035 78.3865C161.197 77.2759 161.705 76.7172 162.558 76.7106C163.497 76.7034 163.971 77.297 163.98 78.4917L164.284 84.6335C164.492 89.496 165.672 93.071 167.823 95.3584C170.059 97.5598 172.755 98.6483 175.913 98.6239C178.643 98.6027 180.983 97.7312 182.932 96.0094C184.881 94.2023 185.842 91.5921 185.816 88.1788C185.801 86.2162 185.488 84.4266 184.878 82.8099C184.268 81.108 183.315 79.3233 182.021 77.4559C180.726 75.5032 178.958 73.1702 176.718 70.4568C173.788 66.7247 171.587 63.5416 170.116 60.9076C168.73 58.1876 168.025 55.377 168.003 52.4757C167.961 47.0999 169.592 42.7778 172.895 39.5095C176.283 36.2405 180.579 34.5858 185.785 34.5455C188.088 34.5276 190.31 34.8518 192.448 35.5179C194.672 36.1834 196.515 37.1931 197.976 38.5472C198.748 39.1385 199.01 39.9045 198.762 40.8452L195.311 58.0244C195.063 59.1357 194.556 59.6943 193.788 59.7002C193.02 59.7062 192.546 59.1125 192.366 57.9192L191.934 51.7784C191.553 46.6612 190.842 42.9972 189.801 40.7866C188.845 38.5752 186.831 37.4815 183.759 37.5052C181.029 37.5264 178.817 38.4822 177.125 40.3727C175.433 42.2632 174.598 44.5311 174.618 47.1763C174.64 49.9923 175.428 52.5889 176.982 54.9663C178.536 57.2583 180.65 60.186 183.323 63.7494C186.857 68.3302 189.232 71.9812 190.448 74.7026C191.749 77.4232 192.41 80.1915 192.432 83.0074C192.46 86.5913 191.674 89.7975 190.074 92.626C188.56 95.4538 186.487 97.6886 183.854 99.3304C181.222 100.972 178.327 101.805 175.169 101.83ZM224.448 22.8537C222.827 22.8662 221.457 22.3222 220.339 21.2214C219.306 20.0347 218.783 18.6308 218.771 17.0095C218.753 14.7055 219.421 12.8656 220.776 11.4898C222.216 10.1132 223.832 9.41804 225.624 9.40416C227.331 9.39094 228.743 9.93468 229.861 11.0354C231.063 12.0501 231.671 13.4108 231.684 15.1174C231.703 17.5067 230.992 19.3895 229.552 20.7661C228.112 22.1426 226.411 22.8385 224.448 22.8537ZM214.562 101.653C211.746 101.674 209.733 100.666 208.523 98.6273C207.311 96.5033 207.242 93.0477 208.314 88.2606L217.472 47.6124C217.884 45.7319 217.915 44.2809 217.566 43.2596C217.301 42.1523 216.529 41.6036 215.249 41.6135C213.713 41.6254 212.015 42.7906 210.156 45.109C208.381 47.3415 206.366 51.6239 204.111 57.9562C203.779 59.0682 203.186 59.6275 202.332 59.6341C201.052 59.644 200.705 58.8786 201.291 57.3381C203.122 51.4357 205.049 46.8126 207.071 43.4689C209.179 40.1245 211.294 37.7613 213.417 36.3795C215.539 34.9977 217.497 34.2999 219.289 34.286C222.275 34.2628 224.374 35.3133 225.585 37.4373C226.796 39.476 226.865 42.8889 225.792 47.676L216.635 88.3242C216.223 90.2047 216.149 91.6987 216.414 92.806C216.763 93.8273 217.578 94.333 218.857 94.3231C220.393 94.3112 222.049 93.189 223.824 90.9566C225.683 88.6381 227.74 84.3127 229.995 77.9804C230.328 76.8684 230.921 76.3091 231.774 76.3025C233.054 76.2926 233.402 77.058 232.816 78.5985C231.069 84.4149 229.1 89.0383 226.907 92.4687C224.8 95.8131 222.685 98.1763 220.562 99.5581C218.439 100.94 216.439 101.638 214.562 101.653ZM311.465 100.774C308.393 100.798 306.079 99.5357 304.524 96.9877C302.968 94.4397 302.852 90.4725 304.176 85.086L313.744 47.8908C314.657 44.5556 314.767 42.2507 314.074 40.976C313.467 39.7007 312.566 39.0677 311.371 39.0769C309.665 39.0901 307.711 40.3 305.511 42.7064C303.311 45.0275 300.988 48.2029 298.545 52.2327C296.187 56.2617 293.875 60.8451 291.611 65.9828C289.347 71.1205 287.255 76.4702 285.335 82.0319C283.416 87.5936 281.837 93.0673 280.598 98.4531C280.35 99.3937 279.756 99.8676 278.817 99.8749L273.825 99.9136C272.631 99.9228 272.157 99.3718 272.405 98.2605L283.793 48.1228C284.535 44.7889 284.602 42.4844 283.995 41.209C283.473 39.933 282.615 39.2997 281.42 39.3089C279.799 39.3215 277.888 40.531 275.688 42.9374C273.487 45.2585 271.208 48.4336 268.85 52.4627C266.492 56.4917 264.18 61.0751 261.916 66.2128C259.652 71.3505 257.56 76.7002 255.64 82.2619C253.721 87.8236 252.184 93.297 251.031 98.6821C250.782 99.6227 250.189 100.097 249.25 100.104L244.002 100.145C242.808 100.154 242.334 99.6028 242.581 98.4915L254.346 47.3268C254.758 45.4463 254.789 43.9953 254.44 42.974C254.175 41.8667 253.403 41.318 252.123 41.3279C250.587 41.3398 248.889 42.505 247.03 44.8234C245.255 47.0559 243.24 51.3383 240.985 57.6706C240.653 58.7826 240.06 59.3419 239.206 59.3485C237.926 59.3584 237.579 58.593 238.164 57.0525C239.996 51.1501 241.923 46.527 243.945 43.1833C246.053 39.8388 248.168 37.4757 250.29 36.0939C252.413 34.7121 254.37 34.0143 256.162 34.0004C258.978 33.9786 260.992 35.0297 262.203 37.1537C263.413 39.1924 263.483 42.6053 262.41 47.3924L259.317 61.2408C259.237 61.8387 259.367 62.1791 259.709 62.2618C260.051 62.3444 260.348 62.1288 260.6 61.6148C265.47 51.3368 269.895 44.1343 273.873 40.0074C277.852 35.8804 281.506 33.8041 284.834 33.7783C287.991 33.7538 290.219 35.0166 291.519 37.5666C292.904 40.116 293.02 44.0405 291.866 49.3403L289.269 61.0088C289.188 61.6068 289.319 61.9471 289.66 62.0298C290.002 62.1125 290.299 61.8968 290.552 61.3828C293.741 54.4459 296.727 48.9613 299.512 44.9289C302.382 40.8106 305.09 37.8882 307.637 36.1618C310.183 34.4353 312.566 33.5635 314.785 33.5463C317.942 33.5219 320.256 34.784 321.726 37.3327C323.197 39.8814 323.227 43.8066 321.817 49.1083L312.377 86.3026C311.798 88.6964 311.77 90.4887 312.291 91.6794C312.812 92.87 313.755 93.4601 315.121 93.4495C316.827 93.4363 318.483 92.3141 320.087 90.083C321.775 87.7658 323.491 83.4431 325.234 77.1147C325.483 76.1741 326.034 75.7005 326.887 75.6939C327.57 75.6886 327.956 75.9416 328.045 76.4529C328.22 76.9636 328.225 77.5609 328.059 78.2449C326.483 84.0599 324.769 88.6386 322.917 91.9811C321.065 95.2382 319.163 97.5143 317.21 98.8095C315.343 100.104 313.428 100.759 311.465 100.774ZM339.374 99.4058C338.18 99.4151 337.706 98.8641 337.954 97.7528L349.718 46.5882C350.13 44.7076 350.161 43.2566 349.812 42.2353C349.547 41.128 348.775 40.5793 347.495 40.5892C345.959 40.6011 344.262 41.7663 342.402 44.0847C340.627 46.3172 338.612 50.5996 336.357 56.9319C336.025 58.0439 335.432 58.6032 334.578 58.6098C333.298 58.6197 332.951 57.8544 333.537 56.3138C335.368 50.4114 337.295 45.7883 339.317 42.4446C341.425 39.1002 343.54 36.737 345.663 35.3552C347.785 33.9734 349.743 33.2756 351.535 33.2617C354.35 33.2399 356.364 34.291 357.575 36.415C358.786 38.4537 358.855 41.8666 357.782 46.6537L356.421 52.6804C356.34 53.2784 356.471 53.6187 356.813 53.7014C357.155 53.7841 357.452 53.5685 357.704 53.0545C360.889 45.6056 363.793 40.4203 366.416 37.4985C369.039 34.5768 372.057 33.1027 375.47 33.0763C377.774 33.0584 379.485 33.6852 380.605 34.9566C381.808 36.142 382.419 37.8013 382.435 39.9346C382.452 42.0678 381.953 43.7784 380.939 45.0663C379.925 46.3542 378.607 47.0044 376.986 47.017C375.621 47.0275 374.637 46.6938 374.034 46.0158C373.431 45.3378 372.956 44.5734 372.608 43.7228C372.345 42.7861 372.04 41.9778 371.693 41.2978C371.347 40.6178 370.789 40.2808 370.022 40.2867C368.742 40.2966 367.09 41.9308 365.067 45.1892C363.045 48.4477 360.86 52.8594 358.514 58.4244C356.252 63.9034 354.038 70.0647 351.873 76.9084C349.792 83.7514 347.969 90.763 346.403 97.9434C346.155 98.884 345.561 99.3579 344.622 99.3652L339.374 99.4058ZM387.457 100.185C384.385 100.209 381.986 98.9051 380.258 96.2731C378.531 93.6411 377.648 89.7651 377.608 84.6453C377.571 79.7814 378.216 74.9123 379.543 70.0379C380.87 65.0781 382.711 60.3704 385.066 55.9147C387.421 51.4589 390.078 47.5129 393.039 44.0766C396.084 40.6395 399.263 37.9268 402.576 35.9384C405.973 33.8641 409.336 32.814 412.664 32.7882C414.285 32.7757 415.824 33.1051 417.279 33.7765C418.735 34.3626 419.937 35.3346 420.886 36.6926C421.404 37.4567 421.919 37.8367 422.431 37.8327C422.943 37.8287 423.452 37.4408 423.958 36.6689C424.886 35.2963 425.648 34.437 426.242 34.0911C426.836 33.6598 427.389 33.4422 427.901 33.4382C429.01 33.4296 429.442 34.0236 429.195 35.2202L418.183 84.331C416.946 89.8874 417.821 92.6541 420.807 92.6309C422.77 92.6157 424.509 91.2796 426.025 88.6224C427.625 85.9646 429.215 81.8562 430.793 76.2971C431.042 75.3565 431.593 74.8829 432.446 74.8763C433.044 74.8716 433.43 75.1247 433.604 75.6353C433.779 76.146 433.783 76.7433 433.618 77.4273C432.059 85.4609 429.928 91.2376 427.224 94.7573C424.52 98.1917 421.248 99.9237 417.408 99.9535C414.08 99.9793 411.68 98.5898 410.208 95.7851C408.82 92.9798 408.663 89.1409 409.734 84.2684L411.344 77.2158C411.51 76.6171 411.379 76.2768 410.952 76.1948C410.61 76.1121 410.313 76.3277 410.061 76.8417C405.434 85.4965 401.3 91.5447 397.657 94.9863C394.1 98.4273 390.7 100.16 387.457 100.185ZM390.606 93.6329C392.654 93.617 394.906 92.3622 397.361 89.8684C399.817 87.3747 402.224 84.1559 404.583 80.2122C407.027 76.2678 409.256 72.0265 411.268 67.4881C413.281 62.9497 414.869 58.5852 416.031 54.3948C417.279 50.2037 417.891 46.6575 417.869 43.7562C417.828 38.5511 415.974 35.9627 412.305 35.9911C410.086 36.0083 407.747 37.0504 405.289 39.1175C402.829 41.0993 400.461 43.8057 398.183 47.2368C395.991 50.6672 393.973 54.5656 392.13 58.932C390.371 63.2125 388.955 67.7036 387.882 72.4053C386.808 77.0218 386.289 81.5486 386.323 85.9858C386.346 88.9724 386.703 91.0177 387.394 92.1217C388.17 93.1397 389.241 93.6435 390.606 93.6329ZM443.45 96.9357L455.215 45.771C455.627 43.8905 455.658 42.4395 455.309 41.4182C455.044 40.3109 454.272 39.7622 452.992 39.7721C451.456 39.784 449.758 40.9492 447.899 43.2676C446.124 45.5001 444.109 49.7825 441.854 56.1148C441.522 57.2268 440.928 57.786 440.075 57.7927C438.795 57.8026 438.448 57.0372 439.033 55.4967C440.865 49.5943 442.792 44.9712 444.814 41.6275C446.922 38.283 449.037 35.9199 451.159 34.5381C453.282 33.1563 455.239 32.4584 457.031 32.4446C459.847 32.4228 461.861 33.4739 463.072 35.5979C464.282 37.6366 464.352 41.0495 463.279 45.8366L460.186 59.685C460.106 60.2829 460.236 60.6233 460.578 60.7059C460.92 60.7886 461.217 60.573 461.469 60.059C464.744 53.1215 467.901 47.6355 470.942 43.6012C473.982 39.4815 476.861 36.5578 479.579 34.83C482.296 33.1022 484.764 32.2298 486.982 32.2126C490.14 32.1881 492.454 33.4502 493.924 35.9989C495.394 38.5476 495.425 42.4728 494.015 47.7746L484.575 84.9688C483.996 87.3627 483.967 89.155 484.489 90.3456C485.01 91.5363 485.953 92.1264 487.318 92.1158C489.025 92.1026 490.68 90.9804 492.285 88.7492C493.973 86.4321 495.689 82.1093 497.432 75.781C497.681 74.8403 498.232 74.3667 499.085 74.3601C499.768 74.3548 500.154 74.6078 500.243 75.1192C500.418 75.6298 500.422 76.2271 500.257 76.9111C498.681 82.7262 496.967 87.3049 495.115 90.6474C493.263 93.9045 491.361 96.1806 489.408 97.4758C487.541 98.7703 485.626 99.4251 483.663 99.4403C480.591 99.4641 478.277 98.202 476.722 95.654C475.166 93.1059 475.05 89.1387 476.373 83.7523L485.942 46.5571C486.854 43.2219 486.965 40.917 486.272 39.6423C485.665 38.367 484.764 37.7339 483.569 37.7432C481.692 37.7577 479.568 38.9689 477.197 41.3766C474.826 43.6991 472.419 46.9178 469.976 51.0329C467.532 55.0626 465.136 59.6466 462.786 64.785C460.436 69.9233 458.302 75.2733 456.382 80.835C454.548 86.3961 453.054 91.8265 451.9 97.1263C451.651 98.0669 451.058 98.5408 450.119 98.5481L444.871 98.5887C443.677 98.598 443.203 98.047 443.45 96.9357ZM528.939 20.4953C527.318 20.5078 525.948 19.9638 524.83 18.863C523.797 17.6763 523.274 16.2724 523.262 14.6511C523.244 12.3471 523.912 10.5072 525.267 9.13138C526.707 7.75485 528.323 7.05964 530.115 7.04576C531.821 7.03254 533.234 7.57629 534.352 8.677C535.554 9.69171 536.162 11.0524 536.175 12.759C536.194 15.1483 535.483 17.0312 534.043 18.4077C532.603 19.7842 530.902 20.4801 528.939 20.4953ZM499.161 125.689C496.174 125.712 493.906 124.876 492.357 123.182C490.723 121.573 489.897 119.574 489.879 117.185C489.865 115.393 490.324 114.024 491.255 113.078C492.187 112.217 493.208 111.783 494.317 111.774C495.938 111.762 497.051 112.265 497.657 113.284C498.177 114.39 498.486 115.625 498.581 116.989C498.677 118.354 498.9 119.547 499.249 120.568C499.599 121.675 500.371 122.224 501.566 122.214C502.505 122.207 503.354 121.646 504.113 120.531C504.958 119.415 505.834 116.805 506.74 112.702L521.963 45.2541C522.375 43.3735 522.406 41.9225 522.057 40.9012C521.792 39.7939 521.02 39.2452 519.74 39.2551C518.204 39.267 516.506 40.4322 514.647 42.7506C512.872 44.9831 510.857 49.2655 508.602 55.5978C508.27 56.7098 507.676 57.2691 506.823 57.2757C505.543 57.2856 505.196 56.5203 505.781 54.9797C507.613 49.0773 509.54 44.4542 511.562 41.1105C513.67 37.7661 515.785 35.4029 517.907 34.0211C520.03 32.6393 521.987 31.9415 523.779 31.9276C526.766 31.9044 528.865 32.9549 530.076 35.0789C531.372 37.1169 531.484 40.5295 530.411 45.3166L517.544 102.762C515.977 109.857 513.546 115.423 510.249 119.459C507.038 123.58 503.342 125.657 499.161 125.689ZM561.438 20.2436C559.817 20.2561 558.447 19.712 557.329 18.6113C556.296 17.4246 555.773 16.0206 555.761 14.3994C555.743 12.0954 556.411 10.2555 557.766 8.87966C559.206 7.50313 560.822 6.80792 562.614 6.79404C564.32 6.78083 565.733 7.32457 566.851 8.42528C568.053 9.43999 568.661 10.8007 568.674 12.5073C568.693 14.8965 567.982 16.7794 566.542 18.156C565.102 19.5325 563.401 20.2284 561.438 20.2436ZM551.552 99.0425C548.736 99.0643 546.723 98.0559 545.512 96.0172C544.301 93.8932 544.232 90.4376 545.304 85.6505L554.462 45.0023C554.874 43.1218 554.905 41.6708 554.556 40.6495C554.291 39.5422 553.519 38.9935 552.239 39.0034C550.703 39.0153 549.005 40.1804 547.146 42.4989C545.371 44.7314 543.356 49.0138 541.101 55.3461C540.769 56.4581 540.176 57.0173 539.322 57.024C538.042 57.0339 537.695 56.2685 538.28 54.728C540.112 48.8256 542.039 44.2025 544.061 40.8588C546.169 37.5143 548.284 35.1512 550.406 33.7694C552.529 32.3876 554.486 31.6897 556.278 31.6759C559.265 31.6527 561.364 32.7032 562.575 34.8272C563.785 36.8659 563.855 40.2788 562.782 45.0659L553.625 85.714C553.213 87.5946 553.139 89.0886 553.404 90.1959C553.753 91.2172 554.567 91.7229 555.847 91.713C557.383 91.7011 559.039 90.5789 560.813 88.3464C562.673 86.028 564.73 81.7026 566.985 75.3703C567.318 74.2583 567.911 73.699 568.764 73.6924C570.044 73.6825 570.391 74.4478 569.806 75.9884C568.059 81.8048 566.089 86.4282 563.897 89.8586C561.79 93.203 559.675 95.5661 557.552 96.948C555.429 98.3298 553.429 99.028 551.552 99.0425ZM585.865 98.6487C582.964 98.6712 580.694 97.5367 579.054 95.2454C577.415 92.954 577.131 89.2441 578.2 84.1157L588.465 37.6988C588.711 36.4168 588.194 35.7808 586.914 35.7907L582.05 35.8284C580.856 35.8376 580.254 35.2876 580.245 34.1783C580.241 33.581 580.451 33.11 580.875 32.7654C581.299 32.4208 581.809 32.2461 582.407 32.2415L587.014 32.2058C588.977 32.1906 590.122 31.2857 590.45 29.4911L593.415 15.7718C593.664 14.8311 594.258 14.3572 595.196 14.3499L600.444 14.3093C601.639 14.3 602.112 14.851 601.865 15.9623L598.775 30.1947C598.529 31.4766 599.046 32.1126 600.326 32.1027L607.622 32.0462C609.072 32.035 609.802 32.584 609.811 33.6933C609.821 34.9733 608.93 35.6202 607.138 35.6341L600.226 35.6876C598.349 35.7021 597.203 36.607 596.791 38.4023L586.402 85.3322C585.99 87.2127 586.044 88.7057 586.565 89.811C587.17 90.8304 588.155 91.3348 589.52 91.3242C591.483 91.309 593.266 90.1858 594.87 87.9547C596.56 85.7228 598.319 81.4851 600.148 75.2414C600.481 74.1295 601.031 73.5705 601.799 73.5646C602.397 73.5599 602.782 73.8129 602.957 74.3236C603.132 74.8343 603.011 75.7739 602.595 77.1425C601.019 82.9576 599.261 87.4086 597.322 90.4957C595.469 93.5822 593.565 95.7303 591.612 96.9402C589.658 98.0647 587.742 98.6342 585.865 98.6487ZM651.576 98.1398C649.187 98.1583 646.625 97.9221 643.89 97.4313C641.241 96.9398 638.719 96.2766 636.323 95.4418C634.011 94.521 632.169 93.4686 630.794 92.2845C630.364 91.8612 630.062 91.4369 629.888 91.0115C629.8 90.5855 629.837 89.9452 630.001 89.0906L633.43 68.9674C633.674 67.4295 634.35 66.6562 635.46 66.6476C636.484 66.6397 637.002 67.4891 637.015 69.1957L637.182 74.1865C637.408 81.353 638.686 86.5059 641.014 89.6453C643.342 92.7847 647.109 94.3342 652.314 94.2939C657.093 94.2569 661.047 92.5196 664.178 89.0819C667.308 85.5589 668.851 80.8961 668.806 75.0936C668.777 71.3391 667.723 67.4218 665.643 63.3418C663.563 59.2618 660.673 55.188 656.972 51.1206C652.582 46.2904 649.306 41.8783 647.141 37.8843C645.062 33.8896 644.006 29.6737 643.971 25.2365C643.944 21.7379 644.771 18.3607 646.453 15.1049C648.134 11.7638 650.672 9.01342 654.069 6.85371C657.55 4.60802 661.979 3.46435 667.355 3.42271C674.779 3.36521 680.466 4.98521 684.417 8.28271C685.619 9.21209 686.057 10.6167 685.73 12.4967L682.291 31.2119C682.045 32.4938 681.452 33.1384 680.514 33.1457C679.575 33.153 679.015 32.4319 678.833 30.9826L678.684 28.2957C678.289 21.3866 677.267 16.1463 675.618 12.575C674.054 8.91766 670.925 7.10717 666.232 7.14352C662.818 7.16996 660.094 7.95908 658.058 9.5109C656.022 11.0627 654.543 12.9942 653.623 15.3054C652.701 17.5313 652.249 19.7535 652.266 21.9721C652.285 24.4467 652.645 26.8333 653.346 29.132C654.045 31.3453 655.216 33.7256 656.857 36.273C658.583 38.7344 660.91 41.7458 663.839 45.3072C667.973 50.1393 671.209 54.7651 673.547 59.1844C675.885 63.6038 677.071 67.9041 677.103 72.0853C677.142 77.1198 676.025 81.6086 673.751 85.5516C671.562 89.4087 668.557 92.4614 664.734 94.7098C660.911 96.9581 656.525 98.1014 651.576 98.1398ZM709.184 19.0992C707.562 19.1118 706.193 18.5677 705.075 17.467C704.042 16.2803 703.519 14.8763 703.506 13.255C703.488 10.9511 704.157 9.11118 705.511 7.73532C706.952 6.35878 708.568 5.66358 710.359 5.6497C712.066 5.63648 713.478 6.18023 714.596 7.28094C715.799 8.29565 716.407 9.65632 716.42 11.3629C716.438 13.7522 715.728 15.6351 714.288 17.0116C712.848 18.3881 711.146 19.084 709.184 19.0992ZM699.298 97.8981C696.482 97.92 694.468 96.9115 693.258 94.8728C692.047 92.7488 691.977 89.2933 693.05 84.5061L702.207 43.858C702.619 41.9774 702.651 40.5265 702.301 39.5051C702.037 38.3978 701.265 37.8491 699.985 37.859C698.449 37.8709 696.751 39.0361 694.892 41.3546C693.117 43.5871 691.102 47.8695 688.847 54.2018C688.514 55.3137 687.921 55.873 687.068 55.8796C685.788 55.8895 685.441 55.1242 686.026 53.5836C687.858 47.6812 689.785 43.0582 691.807 39.7144C693.914 36.37 696.029 34.0069 698.152 32.6251C700.275 31.2432 702.232 30.5454 704.024 30.5315C707.011 30.5084 709.109 31.5588 710.321 33.6828C711.531 35.7215 711.6 39.1344 710.528 43.9215L701.37 84.5697C700.958 86.4503 700.885 87.9442 701.149 89.0515C701.498 90.0729 702.313 90.5786 703.593 90.5687C705.129 90.5568 706.784 89.4346 708.559 87.2021C710.418 84.8836 712.476 80.5582 714.731 74.2259C715.063 73.114 715.656 72.5547 716.51 72.5481C717.79 72.5382 718.137 73.3035 717.552 74.8441C715.805 80.6604 713.835 85.2838 711.643 88.7143C709.535 92.0587 707.42 94.4218 705.298 95.8036C703.175 97.1854 701.175 97.8836 699.298 97.8981ZM727.317 94.737L739.081 43.5724C739.493 41.6918 739.525 40.2409 739.175 39.2195C738.911 38.1122 738.138 37.5635 736.858 37.5734C735.323 37.5853 733.625 38.7505 731.765 41.069C729.991 43.3015 727.976 47.5839 725.721 53.9162C725.388 55.0281 724.795 55.5874 723.942 55.594C722.662 55.6039 722.314 54.8386 722.9 53.298C724.732 47.3956 726.658 42.7726 728.681 39.4288C730.788 36.0844 732.903 33.7213 735.026 32.3395C737.149 30.9576 739.106 30.2598 740.898 30.2459C743.714 30.2241 745.727 31.2752 746.938 33.3992C748.149 35.4379 748.218 38.8508 747.146 43.6379L744.053 57.4863C743.972 58.0843 744.103 58.4246 744.445 58.5073C744.787 58.59 745.084 58.3743 745.336 57.8604C748.61 50.9228 751.768 45.4368 754.809 41.4025C757.849 37.2828 760.728 34.3591 763.445 32.6314C766.162 30.9036 768.63 30.0311 770.849 30.0139C774.006 29.9895 776.32 31.2516 777.791 33.8003C779.261 36.349 779.291 40.2742 777.882 45.5759L768.442 82.7702C767.863 85.1641 767.834 86.9563 768.355 88.147C768.876 89.3377 769.82 89.9277 771.185 89.9171C772.892 89.9039 774.547 88.7817 776.151 86.5506C777.84 84.2334 779.556 79.9107 781.299 73.5823C781.547 72.6417 782.098 72.1681 782.952 72.1615C783.634 72.1562 784.02 72.4092 784.11 72.9205C784.284 73.4312 784.289 74.0285 784.124 74.7125C782.547 80.5275 780.833 85.1063 778.982 88.4487C777.13 91.7058 775.227 93.9819 773.275 95.2771C771.407 96.5716 769.492 97.2265 767.53 97.2417C764.458 97.2655 762.144 96.0033 760.588 93.4553C759.032 90.9073 758.916 86.9401 760.24 81.5537L769.808 44.3584C770.721 41.0233 770.831 38.7183 770.138 37.4437C769.531 36.1683 768.63 35.5353 767.436 35.5445C765.558 35.5591 763.434 36.7702 761.064 39.178C758.692 41.5004 756.285 44.7192 753.842 48.8342C751.399 52.8639 749.002 57.448 746.653 62.5863C744.303 67.7247 742.168 73.0747 740.249 78.6364C738.414 84.1974 736.92 89.6278 735.767 94.9276C735.518 95.8682 734.924 96.3422 733.986 96.3494L728.738 96.3901C727.543 96.3993 727.07 95.8483 727.317 94.737ZM797.662 123.505C790.921 123.557 785.791 122.36 782.274 119.912C778.756 117.465 776.984 114.534 776.957 111.121C776.934 108.134 778.106 105.181 780.473 102.262C782.755 99.4278 787.039 96.1519 793.325 92.4337C794.26 91.9145 794.767 91.3559 794.848 90.7579C795.014 90.0739 794.625 89.4369 793.681 88.8469C791.28 87.3294 789.816 85.5487 789.288 83.5047C788.845 81.4601 789.389 80.0052 790.918 79.14L800.602 73.4328C801.452 72.9995 801.875 72.4842 801.87 71.8869C801.95 71.2036 801.519 70.6096 800.576 70.1049C798.262 68.7574 796.498 66.8511 795.284 64.3857C794.155 61.8344 793.579 59.0654 793.556 56.0789C793.52 51.471 794.596 47.1959 796.784 43.2535C799.057 39.2251 802.061 35.959 805.797 33.4554C809.617 30.951 813.874 29.6807 818.568 29.6443C820.53 29.6291 822.196 29.8722 823.565 30.3736C824.592 30.707 825.357 30.3598 825.861 29.3318C827.288 26.1634 829.103 23.6746 831.308 21.8654C833.597 19.9703 835.979 19.0132 838.454 18.994C840.246 18.9801 841.615 19.4389 842.56 20.3702C843.592 21.3009 844.114 22.5769 844.126 24.1982C844.139 25.8195 843.68 27.1458 842.749 28.177C841.818 29.2082 840.628 29.7295 839.177 29.7407C838.068 29.7493 837.213 29.5426 836.612 29.1206C836.097 28.6979 835.624 28.2749 835.194 27.8515C834.764 27.4282 834.08 27.2201 833.141 27.2274C831.264 27.2419 829.779 28.3201 828.686 30.462C828.351 31.2326 828.271 31.9586 828.447 32.6399C828.622 33.2359 828.969 33.8732 829.486 34.5519C831.727 37.436 832.865 41.0966 832.899 45.5338C832.93 49.5444 832.064 53.3912 830.3 57.0743C828.621 60.6714 826.256 63.7618 823.204 66.3455C820.237 68.8433 816.794 70.534 812.875 71.4177C811.342 71.7709 809.937 72.2085 808.661 72.7304C807.47 73.1663 805.94 73.9888 804.072 75.198L798.976 78.3095C797.702 79.0874 797.368 80.0714 797.975 81.2614C798.581 82.3661 800.253 83.4198 802.991 84.4226L814.031 88.4332C818.822 90.1028 822.124 92.168 823.935 94.6287C825.831 97.0888 826.793 99.9827 826.818 103.311C826.85 107.407 825.512 110.958 822.805 113.966C820.183 116.973 816.659 119.304 812.235 120.96C807.81 122.616 802.952 123.464 797.662 123.505ZM802.149 58.3164C802.18 62.2416 802.756 65.0959 803.879 66.8792C805.087 68.5766 806.758 69.417 808.891 69.4005C811.622 69.3793 814.129 68.1225 816.414 65.6301C818.784 63.0517 820.678 59.7942 822.099 55.8578C823.518 51.836 824.211 47.6918 824.178 43.4253C824.145 39.1588 823.568 36.2618 822.447 34.7344C821.325 33.1217 819.655 32.324 817.436 32.3412C814.791 32.3617 812.284 33.6611 809.914 36.2396C807.544 38.7327 805.649 41.9474 804.229 45.8839C802.809 49.8203 802.115 53.9645 802.149 58.3164ZM799.045 120.294C802.373 120.268 805.483 119.69 808.376 118.558C811.269 117.426 813.603 115.829 815.379 113.768C817.24 111.705 818.16 109.266 818.138 106.45C818.117 103.634 817.373 101.293 815.908 99.427C814.529 97.6457 811.785 96.0029 807.678 94.4986L805.239 93.6215C803.698 93.0361 802.16 92.8346 800.626 93.0172C799.091 93.1998 797.644 93.6376 796.284 94.3309C791.696 96.9265 788.6 99.3399 786.996 101.571C785.392 103.802 784.6 106.24 784.62 108.886C784.645 112.043 785.817 114.722 788.139 116.923C790.46 119.209 794.096 120.333 799.045 120.294ZM878.141 96.3849C875.069 96.4087 872.755 95.1466 871.2 92.5986C869.644 90.0506 869.528 86.0833 870.852 80.6969L880.42 43.5017C881.333 40.1665 881.443 37.8616 880.75 36.5869C880.143 35.3116 879.242 34.6786 878.047 34.6878C876.17 34.7023 874.046 35.9135 871.675 38.3213C869.389 40.643 866.982 43.8618 864.454 47.9775C862.01 52.0072 859.614 56.5912 857.264 61.7296C854.999 66.7819 852.907 72.1316 850.988 77.7787C849.069 83.3404 847.532 88.7711 846.378 94.0709C846.13 95.0115 845.536 95.4854 844.597 95.4927L839.221 95.5343C838.027 95.5436 837.553 94.9926 837.801 93.8813L855.866 13.483C856.281 11.9437 856.273 10.8771 855.842 10.2831C855.496 9.68839 854.725 9.35301 853.53 9.27693L849.687 8.92268C848.406 8.84727 847.847 8.29692 848.01 7.27163C848.175 6.50233 848.769 6.02838 849.791 5.84979C852.859 5.31401 855.585 4.69555 857.969 3.99439C860.352 3.20791 862.265 2.21173 863.706 1.00587C864.385 0.488598 865.023 0.227649 865.62 0.223023C866.644 0.215092 867.033 0.852098 866.787 2.13404L854.665 56.6296C854.584 57.2275 854.715 57.5679 855.057 57.6506C855.399 57.7333 855.696 57.5176 855.948 57.0036C859.307 49.9801 862.507 44.4511 865.547 40.4168C868.588 36.3825 871.425 33.5017 874.057 31.7746C876.774 30.0469 879.242 29.1744 881.461 29.1572C884.618 29.1327 886.932 30.3949 888.402 32.9436C889.873 35.4922 889.903 39.4175 888.493 44.7192L879.053 81.9134C878.474 84.3073 878.446 86.0996 878.967 87.2903C879.488 88.4809 880.431 89.071 881.797 89.0604C883.503 89.0472 885.159 87.925 886.763 85.6938C888.366 83.3774 890.082 79.0546 891.91 72.7256C892.159 71.785 892.71 71.3113 893.563 71.3047C894.246 71.2994 894.632 71.5525 894.721 72.0638C894.896 72.5745 894.901 73.1718 894.735 73.8557C893.159 79.6708 891.445 84.2495 889.593 87.592C887.741 90.8491 885.839 93.1252 883.886 94.4204C882.019 95.7149 880.104 96.3697 878.141 96.3849Z" fill="white"/>
</svg>
